<?xml version="1.0" standalone="no"?>
<!DOCTYPE svg PUBLIC "-//W3C//DTD SVG 20010904//EN"
 "http://www.w3.org/TR/2001/REC-SVG-20010904/DTD/svg10.dtd">
<svg version="1.0" xmlns="http://www.w3.org/2000/svg"
 width="700.000000pt" height="700.000000pt" viewBox="0 0 700.000000 700.000000"
 preserveAspectRatio="xMidYMid meet">
<metadata>
Created by potrace 1.14, written by Peter Selinger 2001-2017
</metadata>
<g transform="translate(0.000000,700.000000) scale(0.100000,-0.100000)"
fill="#000000" stroke="none">
<path d="M3299 6746 c-2 -2 -40 -6 -84 -10 -44 -3 -136 -16 -205 -27 -622
-102 -1190 -395 -1635 -844 -66 -66 -136 -141 -156 -165 -20 -25 -45 -55 -55
-67 -40 -46 -51 -61 -110 -143 -33 -47 -82 -122 -109 -167 -27 -45 -53 -79
-59 -76 -5 3 -6 1 -2 -6 4 -6 -3 -28 -16 -49 -30 -49 -98 -189 -98 -203 0 -5
-5 -7 -12 -3 -6 4 -8 3 -5 -2 3 -6 0 -23 -8 -39 -7 -17 -21 -51 -30 -77 -10
-26 -21 -45 -25 -43 -5 3 -6 -4 -3 -15 3 -12 0 -20 -6 -20 -7 0 -10 -4 -7 -9
3 -5 0 -24 -8 -42 -7 -19 -17 -43 -21 -54 -5 -11 -7 -26 -6 -34 2 -9 -3 -12
-15 -7 -14 5 -15 4 -5 -8 8 -9 9 -21 2 -37 -5 -13 -13 -37 -17 -54 -4 -16 -8
-32 -9 -35 -2 -6 -26 -119 -30 -140 -2 -8 -4 -16 -5 -17 -4 -5 -6 -15 -14 -76
-5 -40 -11 -55 -19 -50 -7 4 -6 -1 2 -10 7 -9 10 -17 5 -17 -5 0 -10 -19 -11
-43 -4 -96 -16 -182 -27 -189 -7 -5 -7 -8 3 -8 11 0 11 -3 0 -17 -12 -15 -12
-16 1 -8 13 8 13 7 1 -8 -9 -12 -10 -17 -2 -17 7 0 9 -4 6 -10 -6 -9 -10 -262
-5 -285 6 -27 4 -61 -4 -72 -5 -9 -4 -13 4 -13 8 0 11 -15 8 -49 -1 -27 0 -47
4 -45 4 2 6 -9 6 -25 -1 -17 -5 -28 -9 -25 -4 2 -11 0 -14 -6 -4 -6 -3 -10 2
-9 23 4 29 -5 32 -48 1 -26 4 -49 6 -53 2 -3 6 -26 10 -50 4 -25 8 -50 9 -57
1 -7 5 -15 9 -19 4 -4 -1 -13 -11 -21 -9 -8 -12 -12 -5 -9 19 10 32 -26 36
-96 1 -10 4 -18 8 -18 4 0 6 -11 4 -25 -1 -14 1 -25 5 -25 7 0 36 -100 32
-112 -1 -5 3 -8 9 -8 5 0 8 -4 4 -9 -3 -5 -1 -12 4 -15 5 -4 8 -17 6 -31 -1
-14 0 -23 3 -20 7 7 32 -52 32 -76 0 -11 4 -19 8 -19 9 0 39 -80 34 -92 -1 -5
3 -8 9 -8 5 0 8 -4 4 -9 -3 -5 -1 -12 5 -16 6 -4 8 -11 5 -16 -4 -5 -2 -9 3
-9 13 0 35 -57 27 -70 -3 -6 -1 -9 7 -8 7 2 12 -3 11 -10 -2 -6 2 -12 8 -12 5
0 7 -4 4 -10 -3 -5 -2 -10 3 -10 6 0 13 -7 16 -16 6 -15 4 -15 -11 -4 -10 8
-8 3 5 -11 13 -13 52 -72 86 -131 49 -83 60 -108 47 -109 -9 -1 -5 -4 9 -8 18
-5 25 -14 25 -31 0 -14 7 -26 15 -28 8 -1 26 -19 40 -39 14 -20 35 -48 48 -62
12 -13 20 -26 17 -29 -3 -3 4 -12 16 -20 11 -8 18 -20 15 -28 -3 -9 0 -11 11
-7 11 4 14 2 11 -8 -3 -8 -11 -13 -17 -12 -6 2 -11 -2 -11 -7 0 -6 5 -10 11
-10 5 0 7 -6 3 -13 -4 -7 -3 -9 2 -4 5 5 10 13 10 18 1 5 2 12 3 16 2 10 41
-29 41 -41 0 -6 9 -17 20 -24 11 -7 20 -20 20 -29 0 -9 3 -13 7 -10 7 8 39
-34 35 -46 -1 -5 2 -6 7 -3 5 4 16 -2 23 -11 7 -10 34 -37 59 -60 35 -31 44
-44 35 -53 -8 -8 -7 -10 4 -6 8 3 24 -1 34 -9 17 -13 17 -17 5 -32 -12 -16
-12 -17 2 -5 13 10 21 8 43 -9 14 -11 23 -26 19 -32 -3 -7 -3 -9 2 -5 10 9 65
-29 65 -45 0 -6 -7 -2 -16 9 -14 18 -15 18 -4 -4 6 -12 15 -20 20 -17 13 8 40
-6 40 -20 0 -8 5 -17 12 -21 7 -4 8 -3 4 4 -5 8 -1 10 9 6 9 -4 14 -13 11 -21
-3 -8 -6 -17 -6 -19 0 -3 -4 -3 -9 1 -10 6 -36 -33 -28 -42 3 -2 8 5 12 16 3
12 11 19 16 16 5 -4 12 0 15 9 9 23 64 -5 64 -33 0 -5 5 -13 12 -17 7 -4 8 -3
4 4 -10 16 0 15 29 -4 26 -17 33 -34 14 -34 -5 0 -7 5 -3 12 5 7 3 8 -5 3 -9
-5 -10 -10 -2 -18 7 -7 15 -6 25 2 10 8 16 9 21 1 3 -5 3 -10 -2 -10 -4 0 -19
-10 -33 -21 -24 -20 -23 -20 12 1 32 18 40 19 51 8 7 -7 30 -22 50 -32 19 -11
41 -29 47 -40 10 -20 10 -20 5 -1 -5 19 -4 19 9 3 7 -10 20 -18 29 -18 26 0
30 -20 5 -29 -14 -6 -17 -10 -7 -10 8 -1 20 4 26 10 11 11 49 -4 65 -26 4 -5
8 -7 8 -2 0 10 61 -24 87 -50 12 -12 18 -24 15 -28 -4 -3 2 -3 12 1 17 6 16 8
-5 20 -13 7 -19 13 -14 14 6 0 25 -9 43 -20 17 -11 32 -18 32 -15 0 2 28 -10
63 -27 34 -17 68 -31 75 -31 6 0 12 -4 12 -9 0 -5 3 -7 8 -4 4 2 18 -2 32 -10
14 -7 21 -13 16 -14 -5 0 -3 -6 3 -14 9 -11 8 -15 -4 -20 -9 -3 -13 -10 -10
-16 3 -5 -3 -10 -14 -10 -12 0 -20 5 -18 12 1 6 -7 13 -18 15 -18 3 -18 2 -2
-5 10 -4 19 -12 20 -17 1 -6 19 -9 39 -9 27 2 35 -2 31 -12 -3 -8 -1 -14 5
-14 6 0 9 8 8 18 -2 9 -10 17 -19 17 -26 0 -30 13 -7 20 20 6 20 8 4 19 -12 9
-14 15 -6 20 7 4 12 2 12 -4 0 -6 4 -8 10 -5 10 6 14 -7 11 -32 -1 -6 2 -14 7
-17 5 -3 8 5 7 18 -3 24 8 28 33 13 6 -5 12 -6 12 -2 0 3 8 1 18 -4 11 -6 31
-12 47 -15 36 -7 39 -10 18 -27 -15 -12 -16 -12 -10 6 7 18 6 19 -6 3 -8 -10
-17 -15 -20 -12 -3 3 -4 -2 -3 -12 2 -10 9 -20 17 -22 11 -3 11 -1 -1 7 -8 6
-12 11 -7 12 19 4 23 5 45 17 12 7 28 9 35 5 6 -4 23 -8 37 -9 14 -1 25 -2 25
-3 0 -2 7 -4 15 -6 8 -1 22 -4 30 -6 8 -2 21 -15 28 -29 12 -23 13 -23 8 -2
-2 12 -1 20 3 17 4 -2 24 -5 44 -7 20 -1 34 -5 32 -8 -3 -4 10 -7 27 -8 17 0
49 -4 72 -8 23 -4 46 -7 53 -6 6 2 15 -3 19 -9 4 -7 3 -9 -2 -6 -6 3 -16 1
-24 -5 -12 -8 -12 -9 2 -4 10 3 20 1 23 -4 3 -5 -3 -11 -12 -13 -15 -4 -15 -5
-2 -6 9 0 23 7 30 16 9 11 10 14 2 9 -9 -5 -11 -2 -6 10 4 10 8 13 10 7 3 -7
11 -9 19 -6 8 3 14 0 14 -6 0 -6 -4 -11 -10 -11 -5 0 -10 -6 -10 -12 1 -7 9
-3 20 10 11 13 24 20 30 17 12 -7 109 -14 238 -17 39 0 72 -5 72 -10 0 -4 5
-8 11 -8 5 0 7 5 4 10 -3 6 -1 10 5 10 6 0 9 -8 6 -17 -8 -24 9 -51 17 -29 4
9 4 23 1 31 -4 10 0 15 11 15 10 0 13 -4 9 -12 -6 -9 -3 -9 9 1 10 8 27 11 41
7 13 -3 26 -3 29 2 2 4 2 1 1 -5 -5 -19 13 -16 20 3 9 24 19 10 11 -15 -4 -13
-11 -18 -18 -14 -7 4 -6 0 2 -10 19 -23 49 -16 67 17 13 25 12 27 -1 16 -8 -7
-15 -18 -15 -24 0 -7 -9 -12 -19 -13 -13 -1 -18 3 -14 13 3 7 10 11 15 8 6 -4
8 2 3 17 -5 19 -4 21 4 9 6 -8 11 -10 11 -4 0 11 64 11 91 0 10 -4 23 0 34 10
14 15 18 15 26 3 6 -10 9 -10 9 -1 0 6 4 12 10 12 5 0 7 -7 4 -15 -4 -8 -1
-15 6 -15 6 0 8 -5 4 -12 -5 -9 -2 -9 9 1 9 7 17 19 17 25 0 6 -4 5 -9 -3 -5
-7 -11 -9 -14 -4 -9 14 6 28 32 31 21 2 22 0 10 -15 -13 -17 -12 -17 7 0 23
19 64 31 64 18 0 -5 -8 -15 -17 -22 -15 -12 -16 -12 -9 6 6 16 5 18 -5 7 -11
-10 -10 -15 3 -29 14 -13 20 -14 32 -4 9 7 14 23 13 34 -1 17 4 22 23 23 14 1
27 2 30 4 10 5 51 7 46 2 -3 -2 0 -14 6 -26 7 -11 12 -24 13 -28 0 -10 37 -37
50 -38 6 0 -3 9 -20 20 -16 11 -27 20 -22 20 4 0 1 10 -7 23 -18 26 -11 41 22
50 18 4 22 2 18 -10 -3 -8 -6 -17 -6 -20 0 -3 -7 0 -15 7 -10 9 -15 9 -15 1 0
-6 5 -11 11 -11 5 0 8 -4 4 -9 -3 -6 1 -13 9 -18 8 -4 14 -12 14 -18 -1 -5 6
-11 15 -13 9 -2 17 1 17 7 0 6 -7 7 -17 4 -11 -4 -14 -3 -9 5 4 7 1 15 -7 18
-13 5 -13 9 1 34 18 30 68 48 86 30 5 -5 15 -10 20 -10 6 0 4 4 -4 10 -18 11
-10 20 24 24 14 1 29 6 33 9 3 4 17 7 30 7 13 0 23 5 23 10 0 14 27 12 33 -2
4 -8 6 -7 6 3 1 9 8 20 17 23 25 10 29 7 9 -7 -15 -12 -16 -15 -4 -22 8 -5 11
-5 7 -1 -3 4 2 16 13 27 20 20 34 26 24 9 -11 -17 7 -11 21 8 7 9 13 13 14 7
0 -19 -19 -40 -36 -40 -10 0 -18 -6 -20 -13 -1 -7 0 -8 3 -2 7 14 23 12 20 -2
-1 -8 8 -13 21 -13 12 0 22 5 23 10 0 6 11 16 25 23 21 11 23 16 13 28 -9 11
-9 14 1 14 8 0 11 3 7 6 -3 3 -11 3 -17 -1 -8 -5 -7 -11 2 -23 11 -13 10 -15
-5 -9 -10 4 -16 3 -13 -2 3 -5 -1 -12 -10 -15 -8 -3 -12 -10 -9 -16 3 -5 -3
-10 -14 -10 -20 0 -19 1 5 38 34 50 70 65 103 43 14 -9 22 -11 18 -4 -4 6 -1
14 5 17 7 3 3 3 -9 0 -13 -3 -23 -1 -23 4 0 15 23 21 42 10 14 -6 16 -5 12 7
-4 10 0 15 14 15 11 0 27 7 36 15 8 9 22 12 32 8 12 -4 15 -3 10 5 -4 7 -2 13
3 13 23 3 27 5 62 27 20 12 44 20 52 16 8 -3 18 0 23 7 5 8 3 10 -6 4 -9 -6
-11 -4 -6 4 5 7 14 10 22 7 8 -3 14 -1 14 3 0 13 72 54 93 53 9 0 16 2 13 6
-2 4 8 16 22 26 16 12 23 14 18 5 -4 -8 0 -5 9 6 13 16 19 18 35 7 11 -6 23
-12 27 -12 5 0 0 5 -9 11 -9 5 -15 16 -12 24 4 8 10 12 15 10 5 -3 16 3 26 15
10 11 23 20 30 20 7 0 13 5 13 10 0 6 10 10 22 10 12 0 18 3 15 7 -6 6 16 24
74 63 12 8 31 25 42 37 11 12 24 20 29 17 4 -3 8 0 8 6 0 7 9 9 23 6 12 -3 16
-3 10 0 -22 10 -14 26 10 19 18 -5 19 -4 7 5 -12 10 -13 12 -1 17 7 3 31 23
53 45 24 24 45 37 54 34 9 -3 12 -1 9 4 -3 6 19 36 49 68 121 125 186 196 186
203 0 3 9 9 20 12 17 4 20 2 16 -16 -3 -12 -3 -16 0 -9 3 6 10 10 15 7 5 -4 6
2 2 11 -5 13 -3 15 7 9 8 -5 11 -4 6 3 -3 6 -15 9 -26 7 -26 -5 -26 7 0 25 11
8 20 20 20 27 0 7 5 13 11 13 5 0 7 -5 3 -12 -4 -7 -3 -8 5 -4 6 4 9 12 5 17
-3 6 6 21 20 34 15 14 26 27 26 30 -1 22 2 26 14 22 10 -4 12 0 8 15 -4 17 -2
20 11 15 10 -4 14 -2 11 7 -2 7 4 23 16 36 11 13 20 30 20 38 0 8 6 12 15 9 8
-4 17 -1 21 5 4 7 3 8 -4 4 -15 -9 -15 0 0 27 11 21 11 21 19 2 8 -18 9 -17 7
5 -1 24 19 80 34 90 4 3 12 18 17 33 6 16 15 25 21 22 6 -3 7 1 4 9 -4 10 -1
16 7 16 7 0 10 3 6 6 -3 3 6 28 20 55 22 44 27 49 41 37 15 -12 16 -11 3 5
-11 14 -12 23 -2 43 7 16 16 22 24 18 9 -5 9 -4 0 6 -11 12 -3 40 17 60 3 3 6
11 8 19 2 8 10 30 19 50 19 41 17 36 27 79 4 17 11 32 15 32 4 0 8 6 9 13 6
48 16 76 25 70 5 -3 7 -1 4 4 -4 6 2 39 14 74 11 35 23 78 26 94 3 17 8 32 11
35 4 3 7 12 7 20 0 32 28 169 34 166 3 -2 7 21 8 52 1 32 7 59 15 63 7 5 8 9
3 9 -6 0 -11 9 -11 20 0 11 3 20 6 20 3 0 5 17 6 38 0 20 4 84 9 142 8 114 7
298 -2 314 -4 5 -1 6 6 2 14 -9 12 25 -3 35 -4 4 -3 17 4 29 8 15 8 20 1 16
-7 -5 -12 13 -13 56 -3 98 -5 122 -11 138 -3 8 -8 33 -11 55 -3 22 -8 55 -12
72 -4 22 -2 39 7 50 13 17 13 17 -5 3 -18 -14 -19 -13 -14 17 2 18 2 30 -1 27
-4 -4 -17 42 -35 131 -2 11 -11 43 -21 70 -24 74 -29 109 -14 100 8 -5 10 -4
5 4 -4 6 -11 9 -15 6 -6 -3 -29 50 -36 85 0 3 -6 15 -13 28 -7 12 -10 22 -6
22 3 0 1 7 -6 15 -6 8 -9 19 -5 25 3 5 2 10 -4 10 -6 0 -14 12 -17 28 -4 15
-28 68 -52 117 -25 50 -45 96 -45 103 0 6 -3 12 -7 12 -8 0 -44 72 -42 83 1 4
-2 7 -8 7 -5 0 -10 5 -10 10 0 14 -161 261 -207 317 -19 24 -31 48 -27 54 4 7
3 9 -4 5 -6 -3 -20 6 -32 21 -36 47 -122 145 -177 202 -29 29 -53 58 -53 62 0
5 -4 9 -8 9 -5 0 -36 26 -70 58 -33 31 -88 79 -121 105 -34 27 -61 53 -61 58
0 5 -4 8 -8 7 -5 -2 -41 21 -80 50 -308 228 -687 402 -1072 492 -47 11 -101
22 -120 25 -19 3 -42 8 -50 10 -8 2 -31 6 -50 9 -95 12 -137 18 -160 22 -28 6
-506 15 -511 10z m515 -5988 c-3 -4 -9 -8 -15 -8 -5 0 -9 4 -9 8 0 5 7 9 15 9
8 0 12 -4 9 -9z m191 -7 c-3 -6 -11 -11 -17 -11 -6 0 -6 6 2 15 14 17 26 13
15 -4z"/>
<path d="M430 4001 c0 -6 4 -13 10 -16 6 -3 7 1 4 9 -7 18 -14 21 -14 7z"/>
<path d="M399 3873 c-13 -16 -12 -17 4 -4 16 13 21 21 13 21 -2 0 -10 -8 -17
-17z"/>
<path d="M450 3719 c0 -5 5 -7 10 -4 6 3 10 8 10 11 0 2 -4 4 -10 4 -5 0 -10
-5 -10 -11z"/>
<path d="M6536 3702 c-3 -4 4 -9 15 -9 23 -2 25 3 4 10 -8 4 -16 3 -19 -1z"/>
<path d="M454 3676 c1 -8 5 -18 8 -22 4 -3 5 1 4 10 -1 8 -5 18 -8 22 -4 3 -5
-1 -4 -10z"/>
<path d="M456 3582 c-3 -4 4 -9 15 -9 23 -2 25 3 4 10 -8 4 -16 3 -19 -1z"/>
<path d="M435 3520 c3 -5 8 -10 11 -10 2 0 4 5 4 10 0 6 -5 10 -11 10 -5 0 -7
-4 -4 -10z"/>
<path d="M6635 3520 c-3 -5 -1 -10 4 -10 6 0 11 5 11 10 0 6 -2 10 -4 10 -3 0
-8 -4 -11 -10z"/>
<path d="M6510 3500 c0 -5 5 -10 11 -10 5 0 7 5 4 10 -3 6 -8 10 -11 10 -2 0
-4 -4 -4 -10z"/>
<path d="M6496 3413 c-6 -14 -5 -15 5 -6 7 7 10 15 7 18 -3 3 -9 -2 -12 -12z"/>
<path d="M6553 3355 c0 -8 4 -12 9 -9 5 3 6 10 3 15 -9 13 -12 11 -12 -6z"/>
<path d="M6516 3282 c-3 -5 1 -9 9 -9 8 0 12 4 9 9 -3 4 -7 8 -9 8 -2 0 -6 -4
-9 -8z"/>
<path d="M513 3195 c0 -8 4 -12 9 -9 5 3 6 10 3 15 -9 13 -12 11 -12 -6z"/>
<path d="M450 3159 c0 -5 5 -7 10 -4 6 3 10 8 10 11 0 2 -4 4 -10 4 -5 0 -10
-5 -10 -11z"/>
<path d="M446 3122 c-3 -5 1 -9 9 -9 8 0 12 4 9 9 -3 4 -7 8 -9 8 -2 0 -6 -4
-9 -8z"/>
<path d="M510 3046 c0 -2 7 -7 16 -10 8 -3 12 -2 9 4 -6 10 -25 14 -25 6z"/>
<path d="M6496 3022 c-3 -5 1 -9 9 -9 8 0 12 4 9 9 -3 4 -7 8 -9 8 -2 0 -6 -4
-9 -8z"/>
<path d="M476 2998 c3 -5 10 -6 15 -3 13 9 11 12 -6 12 -8 0 -12 -4 -9 -9z"/>
<path d="M560 2980 c-9 -6 -10 -10 -3 -10 6 0 15 5 18 10 8 12 4 12 -15 0z"/>
<path d="M6436 2967 c3 -10 9 -15 12 -12 3 3 0 11 -7 18 -10 9 -11 8 -5 -6z"/>
<path d="M6470 2966 c0 -2 7 -7 16 -10 8 -3 12 -2 9 4 -6 10 -25 14 -25 6z"/>
<path d="M486 2938 c3 -5 10 -6 15 -3 13 9 11 12 -6 12 -8 0 -12 -4 -9 -9z"/>
<path d="M555 2940 c3 -5 8 -10 11 -10 2 0 4 5 4 10 0 6 -5 10 -11 10 -5 0 -7
-4 -4 -10z"/>
<path d="M6434 2920 c0 -13 4 -16 10 -10 7 7 7 13 0 20 -6 6 -10 3 -10 -10z"/>
<path d="M530 2859 c0 -5 5 -7 10 -4 6 3 10 8 10 11 0 2 -4 4 -10 4 -5 0 -10
-5 -10 -11z"/>
<path d="M6400 2834 c-11 -12 -10 -18 5 -32 18 -16 18 -16 6 1 -11 14 -11 20
-1 32 7 8 10 15 7 15 -2 0 -10 -7 -17 -16z"/>
<path d="M535 2831 c-3 -5 -2 -12 3 -15 5 -3 9 1 9 9 0 17 -3 19 -12 6z"/>
<path d="M6435 2780 c3 -5 8 -10 11 -10 2 0 4 5 4 10 0 6 -5 10 -11 10 -5 0
-7 -4 -4 -10z"/>
<path d="M629 2738 c7 -9 9 -23 5 -30 -6 -10 -4 -11 7 0 11 10 10 15 -6 30
-17 15 -18 15 -6 0z"/>
<path d="M6353 2735 c0 -8 4 -12 9 -9 5 3 6 10 3 15 -9 13 -12 11 -12 -6z"/>
<path d="M6387 2739 c7 -7 15 -10 18 -7 3 3 -2 9 -12 12 -14 6 -15 5 -6 -5z"/>
<path d="M570 2699 c0 -5 5 -7 10 -4 6 3 10 8 10 11 0 2 -4 4 -10 4 -5 0 -10
-5 -10 -11z"/>
<path d="M631 2687 c2 -1 13 -9 24 -17 19 -14 19 -14 6 3 -7 9 -18 17 -24 17
-6 0 -8 -1 -6 -3z"/>
<path d="M6337 2671 c-10 -14 -10 -14 4 -4 9 7 18 10 21 7 3 -3 8 -1 12 4 9
16 -24 9 -37 -7z"/>
<path d="M6307 2639 c7 -7 15 -10 18 -7 3 3 -2 9 -12 12 -14 6 -15 5 -6 -5z"/>
<path d="M6346 2638 c3 -5 10 -6 15 -3 13 9 11 12 -6 12 -8 0 -12 -4 -9 -9z"/>
<path d="M6360 2620 c-12 -7 -10 -9 7 -7 12 0 19 5 17 9 -6 10 -6 10 -24 -2z"/>
<path d="M615 2579 c-3 -4 2 -6 10 -5 21 3 28 13 10 13 -9 0 -18 -4 -20 -8z"/>
<path d="M699 2553 c-13 -16 -12 -17 4 -4 9 7 17 15 17 17 0 8 -8 3 -21 -13z"/>
<path d="M6273 2552 c-8 -14 -8 -19 1 -19 7 0 13 9 13 19 1 10 1 18 0 18 -1 0
-7 -8 -14 -18z"/>
<path d="M635 2551 c-3 -5 -2 -12 3 -15 5 -3 9 1 9 9 0 17 -3 19 -12 6z"/>
<path d="M716 2521 c-3 -5 2 -15 12 -22 15 -12 16 -12 5 2 -7 9 -10 19 -6 22
3 4 4 7 0 7 -3 0 -8 -4 -11 -9z"/>
<path d="M6346 2522 c-3 -5 1 -9 9 -9 8 0 15 4 15 9 0 4 -4 8 -9 8 -6 0 -12
-4 -15 -8z"/>
<path d="M6270 2456 c0 -2 8 -10 18 -17 15 -13 16 -12 3 4 -13 16 -21 21 -21
13z"/>
<path d="M749 2423 c-13 -16 -12 -17 4 -4 9 7 17 15 17 17 0 8 -8 3 -21 -13z"/>
<path d="M653 2415 c0 -8 4 -12 9 -9 5 3 6 10 3 15 -9 13 -12 11 -12 -6z"/>
<path d="M695 2420 c-3 -5 -1 -10 4 -10 6 0 11 5 11 10 0 6 -2 10 -4 10 -3 0
-8 -4 -11 -10z"/>
<path d="M780 2409 c0 -5 -4 -7 -10 -4 -14 9 -12 -1 3 -13 10 -8 13 -6 14 9 1
10 0 19 -3 19 -2 0 -4 -5 -4 -11z"/>
<path d="M6355 2390 c-4 -6 -11 -7 -17 -4 -7 4 -8 2 -4 -5 6 -9 11 -9 22 0 14
11 18 19 10 19 -3 0 -8 -5 -11 -10z"/>
<path d="M6199 2373 c-13 -16 -12 -17 4 -4 16 13 21 21 13 21 -2 0 -10 -8 -17
-17z"/>
<path d="M6286 2382 c-3 -5 1 -9 9 -9 8 0 12 4 9 9 -3 4 -7 8 -9 8 -2 0 -6 -4
-9 -8z"/>
<path d="M707 2359 c7 -7 15 -10 18 -7 3 3 -2 9 -12 12 -14 6 -15 5 -6 -5z"/>
<path d="M750 2361 c0 -6 4 -13 10 -16 6 -3 7 1 4 9 -7 18 -14 21 -14 7z"/>
<path d="M792 2347 c-8 -10 -6 -13 11 -14 12 0 16 1 9 4 -6 3 -10 9 -6 14 8
14 -2 11 -14 -4z"/>
<path d="M6274 2336 c1 -8 5 -18 8 -22 4 -3 5 1 4 10 -1 8 -5 18 -8 22 -4 3
-5 -1 -4 -10z"/>
<path d="M6235 2320 c3 -5 8 -10 11 -10 2 0 4 5 4 10 0 6 -5 10 -11 10 -5 0
-7 -4 -4 -10z"/>
<path d="M685 2300 c-3 -6 1 -7 9 -4 18 7 21 14 7 14 -6 0 -13 -4 -16 -10z"/>
<path d="M802 2283 c25 -27 39 -32 15 -5 -10 10 -15 21 -12 24 3 2 -2 5 -10 5
-12 0 -10 -6 7 -24z"/>
<path d="M755 2291 c-3 -5 -2 -12 3 -15 5 -3 9 1 9 9 0 17 -3 19 -12 6z"/>
<path d="M857 2276 c-4 -10 -1 -13 8 -9 8 3 12 9 9 14 -7 12 -11 11 -17 -5z"/>
<path d="M6236 2273 c-6 -14 -5 -15 5 -6 7 7 10 15 7 18 -3 3 -9 -2 -12 -12z"/>
<path d="M6159 2275 c-1 -3 -2 -8 -3 -12 -1 -5 -5 -15 -10 -23 -7 -12 -6 -13
4 -3 13 12 23 43 14 43 -2 0 -5 -2 -5 -5z"/>
<path d="M850 2241 c0 -6 4 -13 10 -16 6 -3 7 1 4 9 -7 18 -14 21 -14 7z"/>
<path d="M6119 2248 c-6 -20 -5 -38 1 -48 5 -7 7 0 6 19 -1 26 -4 39 -7 29z"/>
<path d="M6160 2220 c-9 -6 -10 -10 -3 -10 6 0 15 5 18 10 8 12 4 12 -15 0z"/>
<path d="M826 2198 c3 -5 10 -6 15 -3 13 9 11 12 -6 12 -8 0 -12 -4 -9 -9z"/>
<path d="M879 2193 c-13 -17 -13 -17 6 -3 11 8 22 16 24 17 2 2 0 3 -6 3 -6 0
-17 -8 -24 -17z"/>
<path d="M834 2168 l-19 -23 23 19 c21 18 27 26 19 26 -2 0 -12 -10 -23 -22z"/>
<path d="M900 2186 c0 -2 7 -9 15 -16 9 -7 15 -8 15 -2 0 5 -7 12 -15 16 -8 3
-15 4 -15 2z"/>
<path d="M913 2143 c4 -3 -1 -16 -10 -27 -14 -15 -14 -18 -2 -8 9 6 18 10 20
7 3 -2 5 5 6 15 1 11 -3 20 -9 20 -6 0 -8 -3 -5 -7z"/>
<path d="M770 2120 c0 -5 5 -10 11 -10 5 0 7 5 4 10 -3 6 -8 10 -11 10 -2 0
-4 -4 -4 -10z"/>
<path d="M6035 2100 c-16 -7 -17 -9 -3 -9 9 -1 20 4 23 9 7 11 7 11 -20 0z"/>
<path d="M6170 2100 c0 -5 5 -10 11 -10 5 0 7 5 4 10 -3 6 -8 10 -11 10 -2 0
-4 -4 -4 -10z"/>
<path d="M896 2082 c-3 -5 1 -9 9 -9 8 0 12 4 9 9 -3 4 -7 8 -9 8 -2 0 -6 -4
-9 -8z"/>
<path d="M6070 2079 c0 -5 5 -7 10 -4 6 3 10 8 10 11 0 2 -4 4 -10 4 -5 0 -10
-5 -10 -11z"/>
<path d="M5990 2050 c-9 -6 -10 -10 -3 -10 6 0 15 5 18 10 8 12 4 12 -15 0z"/>
<path d="M6300 2046 c0 -2 8 -10 18 -17 15 -13 16 -12 3 4 -13 16 -21 21 -21
13z"/>
<path d="M914 2026 c1 -8 5 -18 8 -22 4 -3 5 1 4 10 -1 8 -5 18 -8 22 -4 3 -5
-1 -4 -10z"/>
<path d="M962 2003 c25 -27 39 -32 15 -5 -10 10 -15 21 -12 24 3 2 -2 5 -10 5
-12 0 -10 -6 7 -24z"/>
<path d="M987 2015 c3 -8 9 -12 14 -9 12 7 11 11 -5 17 -10 4 -13 1 -9 -8z"/>
<path d="M6114 2016 c1 -8 5 -18 8 -22 4 -3 5 1 4 10 -1 8 -5 18 -8 22 -4 3
-5 -1 -4 -10z"/>
<path d="M6010 2002 c0 -5 7 -9 15 -9 8 0 12 4 9 9 -3 4 -9 8 -15 8 -5 0 -9
-4 -9 -8z"/>
<path d="M6075 2000 c3 -5 8 -10 11 -10 2 0 4 5 4 10 0 6 -5 10 -11 10 -5 0
-7 -4 -4 -10z"/>
<path d="M993 1947 c-18 -22 -18 -22 2 -6 11 9 28 15 38 14 11 -2 16 -1 13 3
-14 13 -36 9 -53 -11z"/>
<path d="M6020 1960 c-9 -6 -10 -10 -3 -10 6 0 15 5 18 10 8 12 4 12 -15 0z"/>
<path d="M5947 1943 c7 -2 9 -12 6 -21 -6 -18 -5 -17 14 8 10 13 8 16 -10 17
-12 0 -17 -1 -10 -4z"/>
<path d="M955 1931 c-3 -5 -2 -12 3 -15 5 -3 9 1 9 9 0 17 -3 19 -12 6z"/>
<path d="M1011 1927 c-8 -10 -7 -14 2 -14 8 0 14 6 14 14 0 7 -1 13 -2 13 -2
0 -8 -6 -14 -13z"/>
<path d="M1090 1919 c0 -5 5 -7 10 -4 6 3 10 8 10 11 0 2 -4 4 -10 4 -5 0 -10
-5 -10 -11z"/>
<path d="M5976 1913 c-6 -14 -5 -15 5 -6 7 7 10 15 7 18 -3 3 -9 -2 -12 -12z"/>
<path d="M870 1917 c0 -2 6 -10 14 -16 11 -9 16 -9 22 1 4 7 4 10 -1 6 -4 -4
-14 -3 -22 3 -7 6 -13 9 -13 6z"/>
<path d="M6050 1899 c0 -5 5 -7 10 -4 6 3 10 8 10 11 0 2 -4 4 -10 4 -5 0 -10
-5 -10 -11z"/>
<path d="M6096 1902 c-3 -5 1 -9 9 -9 8 0 12 4 9 9 -3 4 -7 8 -9 8 -2 0 -6 -4
-9 -8z"/>
<path d="M1075 1889 c-4 -6 -5 -12 -2 -15 2 -3 7 2 10 11 7 17 1 20 -8 4z"/>
<path d="M929 1877 c6 -8 7 -18 3 -22 -4 -5 -1 -5 6 -1 10 6 10 11 1 22 -6 8
-14 14 -16 14 -3 0 0 -6 6 -13z"/>
<path d="M1119 1883 c-6 -34 -4 -91 3 -87 4 3 8 0 8 -7 0 -7 3 -9 6 -6 4 4 2
12 -3 19 -6 7 -9 30 -8 51 2 20 1 37 -1 37 -2 0 -5 -3 -5 -7z"/>
<path d="M5893 1876 c0 -8 6 -12 15 -8 9 3 13 1 9 -5 -3 -5 0 -10 8 -10 13 0
12 4 -2 19 -19 22 -30 23 -30 4z"/>
<path d="M5958 1872 c-11 -15 -11 -15 2 -6 8 6 23 10 33 8 11 -1 16 0 13 4
-13 12 -36 10 -48 -6z"/>
<path d="M1033 1867 c0 -8 6 -14 14 -14 9 0 10 4 2 14 -6 7 -12 13 -14 13 -1
0 -2 -6 -2 -13z"/>
<path d="M5870 1863 c0 -5 10 -18 23 -29 l22 -19 -20 25 c-11 14 -21 27 -22
29 -2 2 -3 0 -3 -6z"/>
<path d="M5996 1847 c3 -10 9 -15 12 -12 3 3 0 11 -7 18 -10 9 -11 8 -5 -6z"/>
<path d="M974 1836 c1 -8 5 -18 8 -22 4 -3 5 1 4 10 -1 8 -5 18 -8 22 -4 3 -5
-1 -4 -10z"/>
<path d="M1070 1836 c0 -2 8 -10 18 -17 15 -13 16 -12 3 4 -13 16 -21 21 -21
13z"/>
<path d="M1186 1817 c3 -10 9 -15 12 -12 3 3 0 11 -7 18 -10 9 -11 8 -5 -6z"/>
<path d="M5870 1802 c0 -4 11 -8 25 -8 28 0 24 8 -5 13 -11 2 -20 -1 -20 -5z"/>
<path d="M1066 1782 c-2 -4 4 -8 14 -8 10 0 16 4 14 8 -3 4 -9 8 -14 8 -5 0
-11 -4 -14 -8z"/>
<path d="M1216 1768 c5 -7 2 -9 -8 -6 -8 4 -15 0 -15 -7 0 -10 5 -11 19 -4 16
9 17 29 2 29 -3 0 -2 -5 2 -12z"/>
<path d="M5894 1760 c0 -13 4 -16 10 -10 7 7 7 13 0 20 -6 6 -10 3 -10 -10z"/>
<path d="M1133 1753 c0 -9 4 -10 14 -2 7 6 13 12 13 14 0 1 -6 2 -13 2 -8 0
-14 -6 -14 -14z"/>
<path d="M5788 1763 c7 -3 16 -2 19 1 4 3 -2 6 -13 5 -11 0 -14 -3 -6 -6z"/>
<path d="M5979 1768 c-5 -18 -6 -38 -1 -34 7 8 12 36 6 36 -2 0 -4 -1 -5 -2z"/>
<path d="M1161 1736 c-9 -11 -9 -16 1 -22 7 -4 10 -4 6 1 -4 4 -3 14 3 22 6 7
9 13 6 13 -2 0 -10 -6 -16 -14z"/>
<path d="M5805 1739 c-4 -6 -5 -12 -2 -15 2 -3 7 2 10 11 7 17 1 20 -8 4z"/>
<path d="M5740 1731 c0 -6 4 -13 10 -16 6 -3 7 1 4 9 -7 18 -14 21 -14 7z"/>
<path d="M1181 1714 c0 -11 3 -14 6 -6 3 7 2 16 -1 19 -3 4 -6 -2 -5 -13z"/>
<path d="M1230 1719 c0 -5 5 -7 10 -4 6 3 10 8 10 11 0 2 -4 4 -10 4 -5 0 -10
-5 -10 -11z"/>
<path d="M5816 1713 c-6 -14 -5 -15 5 -6 7 7 10 15 7 18 -3 3 -9 -2 -12 -12z"/>
<path d="M5900 1726 c0 -2 8 -10 18 -17 15 -13 16 -12 3 4 -13 16 -21 21 -21
13z"/>
<path d="M5773 1683 c1 -17 4 -19 14 -11 15 12 18 22 4 14 -5 -4 -11 0 -14 6
-3 7 -4 3 -4 -9z"/>
<path d="M1250 1680 c0 -5 5 -10 10 -10 6 0 10 5 10 10 0 6 -4 10 -10 10 -5 0
-10 -4 -10 -10z"/>
<path d="M5679 1673 c-13 -17 -13 -17 6 -3 11 8 22 16 24 17 2 2 0 3 -6 3 -6
0 -17 -8 -24 -17z"/>
<path d="M5834 1676 c1 -8 5 -18 8 -22 4 -3 5 1 4 10 -1 8 -5 18 -8 22 -4 3
-5 -1 -4 -10z"/>
<path d="M5866 1678 c3 -5 10 -6 15 -3 13 9 11 12 -6 12 -8 0 -12 -4 -9 -9z"/>
<path d="M1288 1673 c6 -2 9 -10 6 -15 -4 -7 -2 -8 5 -4 13 9 5 26 -12 25 -9
0 -8 -2 1 -6z"/>
<path d="M5914 1660 c0 -13 4 -16 10 -10 7 7 7 13 0 20 -6 6 -10 3 -10 -10z"/>
<path d="M5695 1660 c-3 -6 1 -7 9 -4 18 7 21 14 7 14 -6 0 -13 -4 -16 -10z"/>
<path d="M5800 1655 c-7 -8 -16 -13 -19 -10 -4 2 -8 -3 -8 -11 0 -11 6 -9 24
8 13 12 23 23 23 25 0 7 -8 2 -20 -12z"/>
<path d="M1175 1651 c-3 -5 -2 -12 3 -15 5 -3 9 1 9 9 0 17 -3 19 -12 6z"/>
<path d="M5871 1647 c-8 -10 -7 -14 2 -14 8 0 14 6 14 14 0 7 -1 13 -2 13 -2
0 -8 -6 -14 -13z"/>
<path d="M1310 1639 c0 -5 5 -7 10 -4 6 3 10 8 10 11 0 2 -4 4 -10 4 -5 0 -10
-5 -10 -11z"/>
<path d="M5655 1640 c-3 -5 -1 -10 4 -10 6 0 11 5 11 10 0 6 -2 10 -4 10 -3 0
-8 -4 -11 -10z"/>
<path d="M1356 1627 c3 -10 9 -15 12 -12 3 3 0 11 -7 18 -10 9 -11 8 -5 -6z"/>
<path d="M1336 1617 c3 -10 9 -15 12 -12 3 3 0 11 -7 18 -10 9 -11 8 -5 -6z"/>
<path d="M5715 1620 c-16 -7 -17 -9 -3 -9 9 -1 20 4 23 9 7 11 7 11 -20 0z"/>
<path d="M1300 1616 c0 -2 7 -7 16 -10 8 -3 12 -2 9 4 -6 10 -25 14 -25 6z"/>
<path d="M1139 1608 c-5 -18 -6 -38 -1 -34 7 8 12 36 6 36 -2 0 -4 -1 -5 -2z"/>
<path d="M1375 1599 c-4 -6 -5 -12 -2 -15 2 -3 7 2 10 11 7 17 1 20 -8 4z"/>
<path d="M1233 1585 c0 -8 4 -12 9 -9 5 3 6 10 3 15 -9 13 -12 11 -12 -6z"/>
<path d="M5656 1591 c-4 -5 3 -7 14 -4 23 6 26 13 6 13 -8 0 -17 -4 -20 -9z"/>
<path d="M1175 1580 c3 -5 8 -10 11 -10 2 0 4 5 4 10 0 6 -5 10 -11 10 -5 0
-7 -4 -4 -10z"/>
<path d="M1266 1581 c-4 -5 3 -7 14 -4 23 6 26 13 6 13 -8 0 -17 -4 -20 -9z"/>
<path d="M1390 1579 c0 -5 5 -7 10 -4 6 3 10 8 10 11 0 2 -4 4 -10 4 -5 0 -10
-5 -10 -11z"/>
<path d="M5630 1584 c0 -5 7 -18 15 -28 8 -11 15 -16 15 -10 0 5 -7 18 -15 28
-8 11 -15 16 -15 10z"/>
<path d="M5592 1560 c0 -14 2 -19 5 -12 2 6 2 18 0 25 -3 6 -5 1 -5 -13z"/>
<path d="M1274 1558 c-4 -7 -4 -10 1 -6 4 4 15 2 24 -5 14 -11 14 -10 2 6 -16
20 -18 21 -27 5z"/>
<path d="M1370 1560 c0 -5 5 -10 11 -10 5 0 7 5 4 10 -3 6 -8 10 -11 10 -2 0
-4 -4 -4 -10z"/>
<path d="M1436 1547 c3 -10 9 -15 12 -12 3 3 0 11 -7 18 -10 9 -11 8 -5 -6z"/>
<path d="M5670 1556 c0 -2 8 -10 18 -17 15 -13 16 -12 3 4 -13 16 -21 21 -21
13z"/>
<path d="M1395 1539 l-20 -9 20 3 c11 1 26 -4 33 -13 11 -13 11 -11 2 8 -6 12
-12 22 -13 21 -1 0 -11 -5 -22 -10z"/>
<path d="M1286 1522 c-3 -5 1 -9 9 -9 8 0 12 4 9 9 -3 4 -7 8 -9 8 -2 0 -6 -4
-9 -8z"/>
<path d="M5570 1522 c0 -5 7 -9 15 -9 8 0 12 4 9 9 -3 4 -9 8 -15 8 -5 0 -9
-4 -9 -8z"/>
<path d="M5635 1522 c3 -3 0 -10 -5 -17 -7 -8 -5 -12 5 -12 8 0 13 3 10 5 -3
3 0 10 5 17 7 8 5 12 -5 12 -8 0 -13 -3 -10 -5z"/>
<path d="M5673 1523 c4 -3 1 -13 -6 -22 -11 -14 -10 -14 5 -2 16 12 16 31 1
31 -4 0 -3 -3 0 -7z"/>
<path d="M1395 1493 c11 -12 18 -14 26 -6 8 8 7 13 -2 18 -8 5 -10 4 -5 -3 9
-15 -6 -16 -22 -2 -7 5 -5 2 3 -7z"/>
<path d="M1470 1500 c0 -5 7 -7 15 -4 8 4 15 8 15 10 0 2 -7 4 -15 4 -8 0 -15
-4 -15 -10z"/>
<path d="M5730 1499 c0 -5 5 -7 10 -4 6 3 10 8 10 11 0 2 -4 4 -10 4 -5 0 -10
-5 -10 -11z"/>
<path d="M1451 1484 c0 -11 3 -14 6 -6 3 7 2 16 -1 19 -3 4 -6 -2 -5 -13z"/>
<path d="M5500 1485 c0 -8 4 -15 10 -15 5 0 7 7 4 15 -4 8 -8 15 -10 15 -2 0
-4 -7 -4 -15z"/>
<path d="M5544 1484 c-18 -14 -18 -15 4 -4 12 6 22 13 22 15 0 8 -5 6 -26 -11z"/>
<path d="M1300 1486 c0 -2 8 -10 18 -17 15 -13 16 -12 3 4 -13 16 -21 21 -21
13z"/>
<path d="M1373 1475 c0 -8 4 -12 9 -9 5 3 6 10 3 15 -9 13 -12 11 -12 -6z"/>
<path d="M1490 1480 c0 -5 5 -10 10 -10 6 0 10 5 10 10 0 6 -4 10 -10 10 -5 0
-10 -4 -10 -10z"/>
<path d="M5875 1480 c-3 -5 -1 -10 4 -10 6 0 11 5 11 10 0 6 -2 10 -4 10 -3 0
-8 -4 -11 -10z"/>
<path d="M1253 1465 c0 -8 4 -12 9 -9 5 3 6 10 3 15 -9 13 -12 11 -12 -6z"/>
<path d="M1474 1456 c1 -8 5 -18 8 -22 4 -3 5 1 4 10 -1 8 -5 18 -8 22 -4 3
-5 -1 -4 -10z"/>
<path d="M5470 1460 c0 -5 5 -10 10 -10 6 0 10 5 10 10 0 6 -4 10 -10 10 -5 0
-10 -4 -10 -10z"/>
<path d="M5595 1451 c1 -9 -3 -23 -9 -31 -10 -13 -9 -13 7 -1 9 8 15 16 12 19
-3 3 0 10 5 17 7 8 5 12 -4 12 -8 0 -13 -7 -11 -16z"/>
<path d="M5570 1451 c0 -7 -5 -9 -12 -5 -7 4 -10 4 -6 -1 4 -4 3 -14 -4 -22
-8 -11 -7 -12 5 -7 16 6 31 33 22 42 -3 3 -5 0 -5 -7z"/>
<path d="M1310 1441 c0 -6 4 -13 10 -16 6 -3 7 1 4 9 -7 18 -14 21 -14 7z"/>
<path d="M1357 1431 c-10 -14 -10 -14 4 -4 9 7 18 10 21 7 3 -3 8 -1 12 4 9
16 -24 9 -37 -7z"/>
<path d="M1435 1410 c1 -16 4 -32 7 -35 3 -3 5 8 4 24 -1 16 -4 32 -7 35 -3 3
-5 -8 -4 -24z"/>
<path d="M1510 1430 c-8 -5 -10 -10 -5 -10 6 0 17 5 25 10 8 5 11 10 5 10 -5
0 -17 -5 -25 -10z"/>
<path d="M5462 1417 c10 -8 15 -17 11 -20 -3 -4 -1 -7 5 -7 20 0 13 19 -10 30
-21 10 -21 10 -6 -3z"/>
<path d="M1295 1400 c-3 -5 -1 -10 4 -10 6 0 11 5 11 10 0 6 -2 10 -4 10 -3 0
-8 -4 -11 -10z"/>
<path d="M1473 1386 c-18 -21 -18 -21 3 -3 16 13 23 15 26 6 3 -9 6 -9 10 2 9
23 -19 19 -39 -5z"/>
<path d="M1550 1399 c0 -5 5 -7 10 -4 6 3 10 8 10 11 0 2 -4 4 -10 4 -5 0 -10
-5 -10 -11z"/>
<path d="M5400 1395 c-19 -22 -8 -25 13 -3 9 10 13 18 8 18 -5 0 -14 -7 -21
-15z"/>
<path d="M5800 1406 c0 -2 8 -10 18 -17 15 -13 16 -12 3 4 -13 16 -21 21 -21
13z"/>
<path d="M1590 1389 c0 -5 -5 -7 -12 -3 -7 4 -8 3 -4 -4 4 -6 13 -9 21 -5 17
6 20 23 5 23 -5 0 -10 -5 -10 -11z"/>
<path d="M1390 1386 c0 -2 7 -7 16 -10 8 -3 12 -2 9 4 -6 10 -25 14 -25 6z"/>
<path d="M5430 1380 c0 -4 6 -13 14 -19 11 -9 16 -9 22 0 5 8 3 9 -6 4 -9 -6
-12 -4 -8 7 4 9 0 15 -8 15 -8 0 -14 -4 -14 -7z"/>
<path d="M5402 1360 c-7 -12 -8 -20 -2 -20 5 0 10 5 10 11 0 5 4 7 10 4 6 -3
7 1 4 9 -8 20 -7 20 -22 -4z"/>
<path d="M1359 1353 c-13 -16 -12 -17 4 -4 9 7 17 15 17 17 0 8 -8 3 -21 -13z"/>
<path d="M1480 1365 c0 -2 6 -8 13 -14 10 -8 14 -7 14 2 0 8 -6 14 -14 14 -7
0 -13 -1 -13 -2z"/>
<path d="M1610 1360 c0 -5 5 -10 10 -10 6 0 10 5 10 10 0 6 -4 10 -10 10 -5 0
-10 -4 -10 -10z"/>
<path d="M5335 1360 c-3 -5 -1 -10 4 -10 6 0 11 5 11 10 0 6 -2 10 -4 10 -3 0
-8 -4 -11 -10z"/>
<path d="M5613 1351 c0 -11 5 -18 9 -15 4 3 5 11 1 19 -7 21 -12 19 -10 -4z"/>
<path d="M1545 1340 c-3 -6 1 -7 9 -4 18 7 21 14 7 14 -6 0 -13 -4 -16 -10z"/>
<path d="M5355 1339 c-4 -6 -5 -12 -2 -15 2 -3 7 2 10 11 7 17 1 20 -8 4z"/>
<path d="M1691 1324 c0 -11 3 -14 6 -6 3 7 2 16 -1 19 -3 4 -6 -2 -5 -13z"/>
<path d="M5321 1322 c-1 -13 -5 -21 -10 -17 -6 3 -15 -5 -21 -17 -10 -21 -10
-21 3 -6 8 10 17 15 20 11 9 -8 20 23 14 39 -3 7 -6 3 -6 -10z"/>
<path d="M5435 1331 c-3 -5 -19 -8 -36 -6 -18 3 -29 2 -26 -2 13 -12 57 -11
68 3 6 8 9 14 6 14 -3 0 -8 -4 -12 -9z"/>
<path d="M5494 1326 c1 -8 5 -18 8 -22 4 -3 5 1 4 10 -1 8 -5 18 -8 22 -4 3
-5 -1 -4 -10z"/>
<path d="M1484 1322 c4 -3 14 -7 22 -8 9 -1 13 0 10 4 -4 3 -14 7 -22 8 -9 1
-13 0 -10 -4z"/>
<path d="M1565 1320 c-3 -6 1 -7 9 -4 18 7 21 14 7 14 -6 0 -13 -4 -16 -10z"/>
<path d="M1665 1320 c-3 -5 -1 -10 4 -10 6 0 11 5 11 10 0 6 -2 10 -4 10 -3 0
-8 -4 -11 -10z"/>
<path d="M5275 1320 c-3 -5 -1 -10 4 -10 6 0 11 5 11 10 0 6 -2 10 -4 10 -3 0
-8 -4 -11 -10z"/>
<path d="M5459 1313 c-13 -16 -12 -17 4 -4 16 13 21 21 13 21 -2 0 -10 -8 -17
-17z"/>
<path d="M5550 1319 c0 -5 5 -7 10 -4 6 3 10 8 10 11 0 2 -4 4 -10 4 -5 0 -10
-5 -10 -11z"/>
<path d="M5666 1322 c-3 -5 1 -9 9 -9 8 0 12 4 9 9 -3 4 -7 8 -9 8 -2 0 -6 -4
-9 -8z"/>
<path d="M5360 1295 c-7 -8 -16 -12 -21 -9 -5 3 -9 0 -9 -6 0 -7 7 -9 16 -6 9
4 22 2 29 -4 8 -7 12 -5 12 5 0 8 -5 11 -10 8 -6 -4 -8 0 -4 10 8 21 3 22 -13
2z"/>
<path d="M1713 1279 c-2 -23 3 -25 10 -4 4 8 3 16 -1 19 -4 3 -9 -4 -9 -15z"/>
<path d="M5262 1280 c0 -14 2 -19 5 -12 2 6 2 18 0 25 -3 6 -5 1 -5 -13z"/>
<path d="M5409 1283 c-13 -16 -12 -17 4 -4 9 7 17 15 17 17 0 8 -8 3 -21 -13z"/>
<path d="M1410 1280 c0 -5 5 -10 11 -10 5 0 7 5 4 10 -3 6 -8 10 -11 10 -2 0
-4 -4 -4 -10z"/>
<path d="M1453 1271 c0 -11 5 -18 9 -15 4 3 5 11 1 19 -7 21 -12 19 -10 -4z"/>
<path d="M1616 1273 c-6 -14 -5 -15 5 -6 7 7 10 15 7 18 -3 3 -9 -2 -12 -12z"/>
<path d="M1670 1270 c-6 -11 -9 -20 -8 -20 2 0 11 9 21 20 9 11 13 20 7 20 -5
0 -14 -9 -20 -20z"/>
<path d="M1755 1279 c-4 -6 -5 -12 -2 -15 2 -3 7 2 10 11 7 17 1 20 -8 4z"/>
<path d="M5470 1281 c0 -6 4 -13 10 -16 6 -3 7 1 4 9 -7 18 -14 21 -14 7z"/>
<path d="M5516 1273 c-6 -14 -5 -15 5 -6 7 7 10 15 7 18 -3 3 -9 -2 -12 -12z"/>
<path d="M1495 1260 c3 -5 8 -10 11 -10 2 0 4 5 4 10 0 6 -5 10 -11 10 -5 0
-7 -4 -4 -10z"/>
<path d="M5219 1268 c-11 -40 1 -73 17 -47 4 7 3 9 -4 5 -7 -4 -10 2 -9 14 1
12 6 19 14 16 7 -3 13 -1 13 4 0 8 -28 15 -31 8z"/>
<path d="M5293 1255 c-3 -9 -3 -18 -1 -21 3 -3 8 4 11 16 6 23 -1 27 -10 5z"/>
<path d="M5181 1253 c3 -18 -2 -34 -9 -29 -4 2 -14 1 -22 -4 -11 -7 -9 -9 8
-7 26 2 49 32 32 42 -6 4 -10 3 -9 -2z"/>
<path d="M1559 1233 c-13 -16 -12 -17 4 -4 16 13 21 21 13 21 -2 0 -10 -8 -17
-17z"/>
<path d="M1590 1238 c0 -4 4 -8 9 -8 6 0 12 4 15 8 3 5 -1 9 -9 9 -8 0 -15 -4
-15 -9z"/>
<path d="M1630 1242 c0 -5 7 -9 15 -9 8 0 12 4 9 9 -3 4 -9 8 -15 8 -5 0 -9
-4 -9 -8z"/>
<path d="M1690 1238 c0 -6 3 -8 7 -5 3 4 13 1 22 -6 14 -11 14 -10 2 6 -15 20
-31 22 -31 5z"/>
<path d="M1752 1234 c-7 -8 -8 -14 -3 -14 10 0 25 19 20 25 -2 1 -10 -3 -17
-11z"/>
<path d="M5255 1239 c-6 -8 -4 -10 5 -4 10 6 12 4 6 -11 -6 -15 -5 -17 5 -6 9
9 10 15 2 23 -8 8 -13 7 -18 -2z"/>
<path d="M5314 1225 c0 -13 3 -22 7 -19 8 4 6 30 -2 38 -3 3 -5 -5 -5 -19z"/>
<path d="M5456 1238 c3 -5 10 -6 15 -3 13 9 11 12 -6 12 -8 0 -12 -4 -9 -9z"/>
<path d="M5499 1248 c-5 -18 -6 -38 -1 -34 7 8 12 36 6 36 -2 0 -4 -1 -5 -2z"/>
<path d="M5630 1239 c0 -5 5 -7 10 -4 6 3 10 8 10 11 0 2 -4 4 -10 4 -5 0 -10
-5 -10 -11z"/>
<path d="M1819 1228 c-8 -36 -8 -51 0 -38 5 8 7 18 5 22 -3 4 -1 8 5 8 5 0 12
-5 14 -10 3 -6 4 -5 3 2 -2 10 -25 25 -27 16z"/>
<path d="M1610 1201 c0 -6 4 -12 8 -15 5 -3 9 1 9 9 0 8 -4 15 -9 15 -4 0 -8
-4 -8 -9z"/>
<path d="M1725 1200 c-3 -6 1 -7 9 -4 18 7 21 14 7 14 -6 0 -13 -4 -16 -10z"/>
<path d="M1785 1199 c-4 -6 -5 -12 -2 -15 2 -3 7 2 10 11 7 17 1 20 -8 4z"/>
<path d="M1867 1199 c7 -7 15 -10 18 -7 3 3 -2 9 -12 12 -14 6 -15 5 -6 -5z"/>
<path d="M5202 1196 c7 -8 15 -12 17 -11 5 6 -10 25 -20 25 -5 0 -4 -6 3 -14z"/>
<path d="M5247 1199 c7 -7 15 -10 18 -7 3 3 -2 9 -12 12 -14 6 -15 5 -6 -5z"/>
<path d="M1675 1189 c-4 -6 -5 -12 -2 -15 2 -3 7 2 10 11 7 17 1 20 -8 4z"/>
<path d="M1830 1178 c0 -6 7 -7 16 -4 13 5 15 2 11 -14 -3 -11 0 -23 5 -27 7
-3 8 -1 4 5 -4 7 -2 12 4 12 17 0 -5 33 -24 36 -9 1 -16 -2 -16 -8z"/>
<path d="M1897 1183 c-4 -3 -7 -11 -7 -17 0 -6 5 -4 10 4 5 8 10 13 11 10 0
-3 2 -13 4 -23 2 -13 -1 -17 -11 -13 -9 3 -12 1 -9 -5 4 -5 16 -7 27 -3 11 3
18 2 15 -3 -3 -5 -1 -15 4 -23 7 -11 8 -9 6 9 -2 14 -9 27 -15 29 -7 2 -10 7
-7 12 6 10 -20 32 -28 23z"/>
<path d="M5099 1188 c-14 -47 -4 -63 26 -42 10 8 14 14 9 14 -6 0 -15 -5 -21
-11 -9 -9 -12 -7 -10 10 1 13 6 20 15 16 7 -2 10 0 7 5 -5 9 -24 14 -26 8z"/>
<path d="M5410 1179 c0 -5 5 -7 10 -4 6 3 10 8 10 11 0 2 -4 4 -10 4 -5 0 -10
-5 -10 -11z"/>
<path d="M1686 1161 c-14 -15 -15 -21 -4 -27 7 -4 10 -3 5 1 -4 5 0 17 10 27
9 10 14 18 11 18 -3 0 -13 -9 -22 -19z"/>
<path d="M5065 1160 c3 -5 8 -10 11 -10 2 0 4 5 4 10 0 6 -5 10 -11 10 -5 0
-7 -4 -4 -10z"/>
<path d="M5185 1160 c-3 -5 3 -7 12 -6 10 2 22 -2 26 -8 6 -7 7 -6 5 3 -5 16
-35 24 -43 11z"/>
<path d="M5350 1160 c0 -5 5 -10 11 -10 5 0 7 5 4 10 -3 6 -8 10 -11 10 -2 0
-4 -4 -4 -10z"/>
<path d="M5044 1139 c-5 -8 -3 -9 6 -4 10 6 12 4 7 -8 -3 -10 -2 -17 3 -17 13
0 13 27 1 35 -5 3 -13 0 -17 -6z"/>
<path d="M5150 1140 c0 -5 5 -10 10 -10 6 0 10 5 10 10 0 6 -4 10 -10 10 -5 0
-10 -4 -10 -10z"/>
<path d="M5266 1142 c-3 -5 1 -9 9 -9 8 0 12 4 9 9 -3 4 -7 8 -9 8 -2 0 -6 -4
-9 -8z"/>
<path d="M1820 1130 c0 -5 -8 -7 -17 -3 -19 6 -18 5 7 -14 13 -10 16 -8 17 8
1 10 0 19 -3 19 -2 0 -4 -4 -4 -10z"/>
<path d="M5001 1131 c-7 -5 -12 -13 -10 -18 2 -5 12 -1 22 9 18 19 12 24 -12
9z"/>
<path d="M5320 1120 c-9 -6 -10 -10 -3 -10 6 0 15 5 18 10 8 12 4 12 -15 0z"/>
<path d="M5350 1126 c0 -2 7 -7 16 -10 8 -3 12 -2 9 4 -6 10 -25 14 -25 6z"/>
<path d="M1916 1107 c3 -10 9 -15 12 -12 3 3 0 11 -7 18 -10 9 -11 8 -5 -6z"/>
<path d="M4960 1110 c-9 -6 -10 -10 -3 -10 6 0 15 5 18 10 8 12 4 12 -15 0z"/>
<path d="M5030 1111 c0 -7 -5 -9 -12 -5 -7 4 -10 3 -5 -1 4 -5 18 -10 30 -12
12 -2 18 0 12 5 -5 4 -13 11 -17 16 -5 5 -8 4 -8 -3z"/>
<path d="M5153 1105 c0 -8 4 -12 9 -9 5 3 6 10 3 15 -9 13 -12 11 -12 -6z"/>
<path d="M5235 1111 c-3 -5 -2 -12 3 -15 5 -3 9 1 9 9 0 17 -3 19 -12 6z"/>
<path d="M1613 1095 c0 -8 4 -12 9 -9 5 3 6 10 3 15 -9 13 -12 11 -12 -6z"/>
<path d="M1791 1093 c7 -12 15 -20 18 -17 3 2 -3 12 -13 22 -17 16 -18 16 -5
-5z"/>
<path d="M1875 1100 c6 -10 4 -12 -8 -7 -21 8 -22 3 -3 -12 10 -9 15 -8 19 3
4 9 1 18 -5 22 -7 5 -8 2 -3 -6z"/>
<path d="M2015 1101 c-3 -5 0 -13 6 -17 8 -5 9 -3 4 6 -6 10 -4 12 9 7 10 -4
15 -3 11 3 -8 13 -22 13 -30 1z"/>
<path d="M5196 1102 c-3 -5 1 -9 9 -9 8 0 12 4 9 9 -3 4 -7 8 -9 8 -2 0 -6 -4
-9 -8z"/>
<path d="M2060 1095 c0 -5 5 -17 10 -25 5 -8 10 -10 10 -5 0 6 -5 17 -10 25
-5 8 -10 11 -10 5z"/>
<path d="M5108 1093 c6 -2 18 -2 25 0 6 3 1 5 -13 5 -14 0 -19 -2 -12 -5z"/>
<path d="M1964 1074 c-18 -15 -18 -15 3 -5 30 15 33 14 27 -6 -5 -15 -4 -15 4
-3 21 29 -3 39 -34 14z"/>
<path d="M4940 1085 c0 -8 29 -12 39 -5 9 5 4 8 -13 8 -14 0 -26 -2 -26 -3z"/>
<path d="M4989 1071 c-12 -11 -14 -22 -8 -36 l9 -20 -3 20 c-1 11 4 25 13 32
8 6 13 13 10 16 -3 2 -12 -3 -21 -12z"/>
<path d="M5166 1082 c-3 -5 1 -9 9 -9 8 0 12 4 9 9 -3 4 -7 8 -9 8 -2 0 -6 -4
-9 -8z"/>
<path d="M5266 1078 c3 -5 10 -6 15 -3 13 9 11 12 -6 12 -8 0 -12 -4 -9 -9z"/>
<path d="M5310 1079 c0 -5 5 -7 10 -4 6 3 10 8 10 11 0 2 -4 4 -10 4 -5 0 -10
-5 -10 -11z"/>
<path d="M2040 1069 c0 -5 -4 -8 -9 -4 -6 3 -15 -5 -21 -17 -10 -21 -10 -22 4
-5 8 10 18 18 22 17 5 -1 10 3 12 9 2 6 1 11 -2 11 -3 0 -6 -5 -6 -11z"/>
<path d="M2097 1074 c-4 -4 -4 -11 -1 -15 7 -12 34 -11 34 1 0 5 -7 6 -17 3
-11 -4 -14 -3 -9 5 8 13 3 16 -7 6z"/>
<path d="M4913 1068 c-18 -24 -24 -38 -16 -38 4 0 13 11 20 25 12 27 11 32 -4
13z"/>
<path d="M4860 1060 c0 -6 7 -10 15 -10 8 0 15 2 15 4 0 2 -7 6 -15 10 -8 3
-15 1 -15 -4z"/>
<path d="M4937 1063 c-10 -10 -8 -33 3 -33 5 0 6 7 3 17 -5 12 -3 14 7 8 9 -5
11 -4 6 3 -8 14 -10 14 -19 5z"/>
<path d="M5013 1057 c-4 -6 -1 -7 7 -2 10 6 12 4 7 -8 -9 -23 0 -22 12 1 8 14
6 19 -5 19 -8 0 -18 -5 -21 -10z"/>
<path d="M2141 1050 c0 -8 4 -22 9 -30 5 -8 10 -10 10 -5 0 6 5 3 10 -5 14
-22 12 -30 -5 -24 -8 4 -15 2 -15 -4 0 -13 33 -8 38 6 2 6 -5 19 -16 30 -11
11 -22 26 -25 33 -4 11 -6 11 -6 -1z"/>
<path d="M1913 1043 c4 -3 1 -13 -6 -22 -11 -14 -10 -14 6 -2 20 15 22 31 5
31 -6 0 -8 -3 -5 -7z"/>
<path d="M2050 1040 c0 -5 5 -10 10 -10 6 0 10 5 10 10 0 6 -4 10 -10 10 -5 0
-10 -4 -10 -10z"/>
<path d="M2087 1039 c7 -7 15 -10 18 -7 3 3 -2 9 -12 12 -14 6 -15 5 -6 -5z"/>
<path d="M4840 1040 c8 -5 20 -10 25 -10 6 0 3 5 -5 10 -8 5 -19 10 -25 10 -5
0 -3 -5 5 -10z"/>
<path d="M5074 1025 c0 -13 3 -22 7 -19 8 4 6 30 -2 38 -3 3 -5 -5 -5 -19z"/>
<path d="M5173 1035 c0 -8 4 -12 9 -9 4 3 8 9 8 15 0 5 -4 9 -8 9 -5 0 -9 -7
-9 -15z"/>
<path d="M5296 1042 c-3 -5 1 -9 9 -9 8 0 12 4 9 9 -3 4 -7 8 -9 8 -2 0 -6 -4
-9 -8z"/>
<path d="M1873 1025 c0 -8 4 -12 9 -9 5 3 6 10 3 15 -9 13 -12 11 -12 -6z"/>
<path d="M4810 1031 c0 -5 5 -13 10 -16 6 -3 10 -2 10 4 0 5 -4 13 -10 16 -5
3 -10 2 -10 -4z"/>
<path d="M1775 1020 c3 -5 8 -10 11 -10 2 0 4 5 4 10 0 6 -5 10 -11 10 -5 0
-7 -4 -4 -10z"/>
<path d="M2016 1021 c-3 -5 0 -14 8 -20 10 -9 15 -8 19 3 4 11 1 13 -10 9 -11
-4 -14 -2 -9 5 4 7 5 12 2 12 -3 0 -7 -4 -10 -9z"/>
<path d="M2115 1019 c-4 -6 -5 -12 -2 -15 2 -3 7 2 10 11 7 17 1 20 -8 4z"/>
<path d="M5206 1022 c-3 -5 1 -9 9 -9 8 0 12 4 9 9 -3 4 -7 8 -9 8 -2 0 -6 -4
-9 -8z"/>
<path d="M2073 1013 c4 -3 -1 -12 -11 -20 -15 -13 -15 -13 4 -4 12 6 24 7 28
3 4 -3 4 1 0 11 -3 9 -11 17 -17 17 -6 0 -7 -3 -4 -7z"/>
<path d="M2235 1002 c5 -15 2 -22 -6 -20 -7 2 -15 -5 -17 -14 -2 -10 1 -18 7
-18 6 0 7 7 4 17 -4 10 -2 14 5 9 16 -10 25 11 12 31 -9 16 -10 15 -5 -5z"/>
<path d="M4772 1004 c-7 -8 -8 -14 -3 -14 10 0 25 19 20 25 -2 1 -10 -3 -17
-11z"/>
<path d="M4841 1002 c0 -13 -5 -21 -10 -18 -9 6 -41 -35 -41 -51 0 -4 8 4 18
18 9 15 25 25 34 23 10 -1 21 3 25 8 3 6 1 8 -5 4 -6 -3 -12 3 -15 16 l-4 23
-2 -23z"/>
<path d="M4870 1009 c0 -5 5 -7 10 -4 6 3 10 8 10 11 0 2 -4 4 -10 4 -5 0 -10
-5 -10 -11z"/>
<path d="M4908 1013 c6 -2 18 -2 25 0 6 3 1 5 -13 5 -14 0 -19 -2 -12 -5z"/>
<path d="M1930 1001 c0 -6 4 -13 10 -16 6 -3 7 1 4 9 -7 18 -14 21 -14 7z"/>
<path d="M2270 992 c6 -12 15 -20 21 -17 5 4 9 -3 9 -14 0 -12 -6 -20 -12 -18
-7 1 -13 -4 -13 -12 0 -8 6 -15 13 -17 7 -1 8 0 2 3 -14 7 -12 23 3 21 7 -2
12 7 12 20 0 12 -3 21 -7 20 -4 -2 -14 6 -23 17 -16 19 -16 19 -5 -3z"/>
<path d="M4736 995 c-5 -14 30 -42 41 -32 2 3 -5 8 -16 12 -12 4 -18 12 -14
21 3 7 3 14 0 14 -3 0 -7 -7 -11 -15z"/>
<path d="M4796 995 c-9 -26 -7 -32 5 -12 6 10 9 21 6 23 -2 3 -7 -2 -11 -11z"/>
<path d="M1815 991 c-3 -5 -2 -12 3 -15 5 -3 9 1 9 9 0 17 -3 19 -12 6z"/>
<path d="M1986 978 c3 -5 10 -6 15 -3 13 9 11 12 -6 12 -8 0 -12 -4 -9 -9z"/>
<path d="M5065 980 c-3 -6 1 -7 9 -4 18 7 21 14 7 14 -6 0 -13 -4 -16 -10z"/>
<path d="M5216 978 c3 -5 10 -6 15 -3 13 9 11 12 -6 12 -8 0 -12 -4 -9 -9z"/>
<path d="M2045 960 c10 -11 20 -20 23 -20 3 0 -3 9 -13 20 -10 11 -20 20 -23
20 -3 0 3 -9 13 -20z"/>
<path d="M4694 959 c1 -11 5 -19 11 -18 5 0 13 -8 17 -18 7 -16 8 -16 5 2 -2
11 -9 19 -15 18 -14 -3 -16 13 -3 22 5 3 12 1 16 -5 3 -5 12 -10 18 -10 13 1
-21 23 -39 26 -6 1 -11 -7 -10 -17z"/>
<path d="M4865 963 c-18 -14 -18 -15 -1 -9 10 3 26 1 35 -6 14 -12 15 -11 1 7
-8 11 -14 21 -15 22 0 1 -9 -6 -20 -14z"/>
<path d="M1946 958 c3 -5 10 -6 15 -3 13 9 11 12 -6 12 -8 0 -12 -4 -9 -9z"/>
<path d="M2250 960 c0 -5 5 -10 10 -10 6 0 10 5 10 10 0 6 -4 10 -10 10 -5 0
-10 -4 -10 -10z"/>
<path d="M2345 958 c1 -7 8 -12 14 -10 6 1 11 -2 11 -8 0 -5 5 -10 11 -10 8 0
8 5 -1 15 -7 8 -16 13 -20 10 -5 -3 -11 0 -13 5 -3 6 -4 5 -2 -2z"/>
<path d="M4936 958 c3 -5 10 -6 15 -3 13 9 11 12 -6 12 -8 0 -12 -4 -9 -9z"/>
<path d="M2107 946 c-4 -10 -1 -13 8 -9 8 3 12 9 9 14 -7 12 -11 11 -17 -5z"/>
<path d="M2316 933 c-6 -14 -5 -15 5 -6 7 7 10 15 7 18 -3 3 -9 -2 -12 -12z"/>
<path d="M4665 939 c-4 -6 -5 -12 -2 -15 2 -3 7 2 10 11 7 17 1 20 -8 4z"/>
<path d="M4815 939 c-4 -6 -5 -12 -2 -15 2 -3 7 2 10 11 7 17 1 20 -8 4z"/>
<path d="M4960 940 c-9 -6 -10 -10 -3 -10 6 0 15 5 18 10 8 12 4 12 -15 0z"/>
<path d="M1957 933 c-10 -9 -9 -23 1 -23 5 0 9 7 9 15 0 17 -1 18 -10 8z"/>
<path d="M2154 929 c-3 -6 -1 -16 6 -22 10 -9 11 -9 5 2 -4 8 -2 17 6 22 9 6
10 9 2 9 -6 0 -15 -5 -19 -11z"/>
<path d="M2228 933 c6 -2 10 -9 7 -13 -3 -5 -2 -11 3 -14 4 -2 9 4 9 15 1 12
-4 19 -15 18 -11 0 -12 -2 -4 -6z"/>
<path d="M4601 928 c-1 -20 14 -24 25 -6 4 6 3 8 -4 4 -5 -3 -13 0 -15 6 -3 8
-6 6 -6 -4z"/>
<path d="M4750 936 c0 -2 7 -9 15 -16 9 -7 15 -8 15 -2 0 5 -7 12 -15 16 -8 3
-15 4 -15 2z"/>
<path d="M2044 922 c4 -3 14 -7 22 -8 9 -1 13 0 10 4 -4 3 -14 7 -22 8 -9 1
-13 0 -10 -4z"/>
<path d="M2335 919 c-9 -13 0 -22 25 -26 22 -3 35 12 19 23 -7 4 -9 3 -5 -4 4
-7 -1 -10 -14 -9 -22 1 -27 13 -7 20 9 4 9 6 0 6 -6 1 -15 -4 -18 -10z"/>
<path d="M2400 920 c0 -5 5 -10 10 -10 6 0 10 5 10 10 0 6 -4 10 -10 10 -5 0
-10 -4 -10 -10z"/>
<path d="M4681 917 c0 -10 -5 -16 -9 -13 -5 3 -16 -4 -25 -15 -9 -10 -12 -19
-7 -19 6 0 13 6 16 14 3 8 14 13 25 11 10 -2 22 1 25 7 4 6 2 8 -4 4 -6 -3
-13 2 -15 11 -4 17 -5 17 -6 0z"/>
<path d="M4916 913 c-6 -14 -5 -15 5 -6 7 7 10 15 7 18 -3 3 -9 -2 -12 -12z"/>
<path d="M4635 909 c-4 -6 -5 -12 -2 -15 2 -3 7 2 10 11 7 17 1 20 -8 4z"/>
<path d="M4870 916 c0 -2 8 -10 18 -17 15 -13 16 -12 3 4 -13 16 -21 21 -21
13z"/>
<path d="M2191 888 c11 -21 20 -24 17 -5 -2 6 4 11 12 9 8 -2 12 0 7 4 -4 4
-16 8 -27 9 -15 1 -17 -2 -9 -17z"/>
<path d="M2430 900 c0 -5 5 -10 10 -10 6 0 10 5 10 10 0 6 -4 10 -10 10 -5 0
-10 -4 -10 -10z"/>
<path d="M2541 890 c-1 -21 16 -46 26 -37 4 5 3 11 -3 15 -6 4 -14 14 -17 22
-5 13 -5 13 -6 0z"/>
<path d="M4715 889 c-4 -6 -5 -12 -2 -15 2 -3 7 2 10 11 7 17 1 20 -8 4z"/>
<path d="M4771 890 c0 -8 4 -22 9 -30 12 -18 12 -2 0 25 -6 13 -9 15 -9 5z"/>
<path d="M4863 882 c10 -10 14 -22 10 -27 -5 -4 -2 -5 5 -1 11 6 10 12 -4 27
-9 10 -19 19 -22 19 -3 0 2 -8 11 -18z"/>
<path d="M2160 886 c0 -2 8 -10 18 -17 15 -13 16 -12 3 4 -13 16 -21 21 -21
13z"/>
<path d="M2233 867 c-18 -22 -18 -22 2 -6 11 9 28 15 38 14 11 -2 16 -1 13 3
-14 13 -36 9 -53 -11z"/>
<path d="M2307 884 c-4 -4 -7 -12 -7 -18 0 -6 5 -4 10 4 9 13 11 13 21 0 9
-12 10 -12 7 -1 -5 17 -21 25 -31 15z"/>
<path d="M2582 874 c9 -9 21 -15 27 -13 6 2 -2 10 -17 17 -25 11 -25 11 -10
-4z"/>
<path d="M4590 880 c0 -5 7 -7 15 -4 8 4 15 8 15 10 0 2 -7 4 -15 4 -8 0 -15
-4 -15 -10z"/>
<path d="M4735 881 c-3 -5 -2 -12 3 -15 5 -3 9 1 9 9 0 17 -3 19 -12 6z"/>
<path d="M2355 869 c-4 -6 -5 -12 -2 -15 2 -3 7 2 10 11 7 17 1 20 -8 4z"/>
<path d="M4390 862 c-23 -25 -18 -47 8 -45 13 2 21 -1 17 -6 -3 -5 -1 -12 4
-15 5 -4 8 2 6 11 -1 12 -10 17 -23 16 -15 -2 -20 2 -16 12 4 8 9 13 13 11 4
-3 8 4 8 15 2 22 2 22 -17 1z"/>
<path d="M2010 859 c0 -5 5 -7 10 -4 6 3 10 8 10 11 0 2 -4 4 -10 4 -5 0 -10
-5 -10 -11z"/>
<path d="M2375 861 c-3 -5 0 -13 6 -17 7 -4 9 -3 5 4 -3 5 0 13 6 15 9 4 10 6
1 6 -6 1 -14 -3 -18 -8z"/>
<path d="M4560 866 c0 -2 7 -7 16 -10 8 -3 12 -2 9 4 -6 10 -25 14 -25 6z"/>
<path d="M4614 863 c4 -7 3 -13 -2 -13 -15 0 -23 -28 -10 -36 7 -5 8 -2 3 6
-6 9 -4 12 7 8 16 -7 19 25 3 39 -4 5 -5 2 -1 -4z"/>
<path d="M4673 855 c0 -8 4 -12 9 -9 5 3 6 10 3 15 -9 13 -12 11 -12 -6z"/>
<path d="M4930 859 c0 -5 5 -7 10 -4 6 3 10 8 10 11 0 2 -4 4 -10 4 -5 0 -10
-5 -10 -11z"/>
<path d="M4438 853 c12 -2 20 -9 17 -14 -4 -5 -1 -9 5 -9 23 0 3 25 -21 27
-22 1 -23 1 -1 -4z"/>
<path d="M4651 844 c0 -11 3 -14 6 -6 3 7 2 16 -1 19 -3 4 -6 -2 -5 -13z"/>
<path d="M2176 833 c-6 -14 -5 -15 5 -6 7 7 10 15 7 18 -3 3 -9 -2 -12 -12z"/>
<path d="M2284 842 c4 -3 14 -7 22 -8 9 -1 13 0 10 4 -4 3 -14 7 -22 8 -9 1
-13 0 -10 -4z"/>
<path d="M2407 839 c7 -7 15 -10 18 -7 3 3 -2 9 -12 12 -14 6 -15 5 -6 -5z"/>
<path d="M2530 843 c5 -2 10 -9 10 -14 0 -6 -4 -8 -8 -5 -4 2 -14 0 -22 -5
-11 -7 -8 -8 10 -6 26 4 35 28 12 33 -7 1 -8 0 -2 -3z"/>
<path d="M2580 840 c0 -5 5 -10 10 -10 6 0 10 5 10 10 0 6 -4 10 -10 10 -5 0
-10 -4 -10 -10z"/>
<path d="M2690 840 c0 -5 5 -10 11 -10 5 0 7 5 4 10 -3 6 -8 10 -11 10 -2 0
-4 -4 -4 -10z"/>
<path d="M4304 839 c-3 -6 -1 -16 5 -22 9 -9 10 -7 5 7 -6 15 -4 17 6 11 9 -5
11 -4 6 3 -9 15 -13 15 -22 1z"/>
<path d="M4340 840 c0 -5 5 -10 10 -10 6 0 10 5 10 10 0 6 -4 10 -10 10 -5 0
-10 -4 -10 -10z"/>
<path d="M2359 838 c-1 -2 -2 -17 -4 -34 -1 -20 3 -31 11 -31 9 0 11 4 4 12
-5 6 -8 21 -5 33 3 18 -1 31 -6 20z"/>
<path d="M2756 827 c3 -10 9 -15 12 -12 3 3 0 11 -7 18 -10 9 -11 8 -5 -6z"/>
<path d="M4507 828 c-12 -10 -14 -17 -6 -28 9 -13 10 -13 6 0 -2 8 3 20 12 27
9 7 13 13 10 13 -3 0 -13 -6 -22 -12z"/>
<path d="M2239 813 c-13 -16 -12 -17 4 -4 9 7 17 15 17 17 0 8 -8 3 -21 -13z"/>
<path d="M2552 809 c-7 -12 -11 -24 -8 -27 3 -3 6 0 6 7 0 7 4 10 8 7 4 -2 9
4 9 15 2 24 1 24 -15 -2z"/>
<path d="M2654 819 c-4 -7 -1 -10 7 -7 8 3 19 -4 25 -15 7 -11 21 -21 32 -22
12 -1 19 2 16 6 -2 4 0 10 6 14 5 3 10 1 10 -6 0 -7 2 -10 5 -7 3 3 3 12 -1
21 -5 13 -8 13 -26 -5 -11 -11 -23 -17 -26 -13 -4 4 2 13 12 21 11 8 15 14 9
14 -7 0 -15 -5 -19 -11 -5 -8 -10 -6 -16 5 -11 19 -24 21 -34 5z"/>
<path d="M2782 826 c4 -5 3 -17 -2 -27 -14 -25 22 -46 40 -24 9 11 9 15 1 15
-6 0 -11 -4 -11 -10 0 -5 -6 -7 -14 -4 -21 8 -8 34 12 27 19 -7 17 -4 -13 17
-11 8 -17 11 -13 6z"/>
<path d="M4534 819 c-5 -8 -3 -9 6 -4 9 6 12 4 8 -7 -4 -9 0 -15 8 -15 18 0
18 11 0 26 -11 9 -16 9 -22 0z"/>
<path d="M4915 820 c3 -5 8 -10 11 -10 2 0 4 5 4 10 0 6 -5 10 -11 10 -5 0 -7
-4 -4 -10z"/>
<path d="M2030 816 c0 -2 8 -10 18 -17 15 -13 16 -12 3 4 -13 16 -21 21 -21
13z"/>
<path d="M2293 807 c0 -8 6 -14 14 -14 9 0 10 4 2 14 -6 7 -12 13 -14 13 -1 0
-2 -6 -2 -13z"/>
<path d="M2442 800 c7 -10 14 -18 15 -16 6 6 -9 36 -18 36 -5 0 -4 -9 3 -20z"/>
<path d="M4205 809 c-5 -8 -5 -11 0 -7 4 4 13 1 19 -7 10 -12 14 -12 30 0 11
8 15 15 9 15 -7 0 -15 -5 -18 -11 -5 -6 -11 -4 -19 7 -11 14 -14 15 -21 3z"/>
<path d="M4333 800 c2 -20 7 -24 26 -22 14 2 21 0 17 -6 -4 -6 -2 -13 3 -16 5
-4 8 2 7 11 -2 10 -11 18 -22 18 -10 0 -22 9 -26 20 -6 17 -7 16 -5 -5z"/>
<path d="M4466 803 c-6 -14 -5 -15 5 -6 7 7 10 15 7 18 -3 3 -9 -2 -12 -12z"/>
<path d="M4653 806 c0 -14 50 -17 63 -4 4 4 -4 5 -16 3 -13 -3 -29 0 -35 5 -8
7 -12 5 -12 -4z"/>
<path d="M2595 800 c27 -12 43 -12 25 0 -8 5 -22 9 -30 9 -10 0 -8 -3 5 -9z"/>
<path d="M2393 785 c0 -8 4 -12 9 -9 5 3 6 10 3 15 -9 13 -12 11 -12 -6z"/>
<path d="M2516 787 c3 -10 9 -15 12 -12 3 3 0 11 -7 18 -10 9 -11 8 -5 -6z"/>
<path d="M4396 787 c3 -10 9 -15 12 -12 3 3 0 11 -7 18 -10 9 -11 8 -5 -6z"/>
<path d="M2110 785 c0 -7 30 -13 34 -7 3 4 -4 9 -15 9 -10 1 -19 0 -19 -2z"/>
<path d="M2176 778 c3 -5 10 -6 15 -3 13 9 11 12 -6 12 -8 0 -12 -4 -9 -9z"/>
<path d="M2670 784 c0 -5 7 -18 15 -28 8 -11 15 -16 15 -10 0 5 -7 18 -15 28
-8 11 -15 16 -15 10z"/>
<path d="M4030 779 c0 -5 5 -7 10 -4 6 3 10 8 10 11 0 2 -4 4 -10 4 -5 0 -10
-5 -10 -11z"/>
<path d="M4190 780 c0 -5 5 -10 10 -10 6 0 10 5 10 10 0 6 -4 10 -10 10 -5 0
-10 -4 -10 -10z"/>
<path d="M4257 784 c-8 -9 3 -34 15 -34 6 0 5 7 -3 16 -11 14 -10 15 7 12 10
-1 23 -7 27 -13 5 -6 7 -4 5 4 -4 14 -41 25 -51 15z"/>
<path d="M4856 782 c-3 -5 1 -9 9 -9 8 0 12 4 9 9 -3 4 -7 8 -9 8 -2 0 -6 -4
-9 -8z"/>
<path d="M2411 767 c-8 -10 -7 -14 2 -14 8 0 14 6 14 14 0 7 -1 13 -2 13 -2 0
-8 -6 -14 -13z"/>
<path d="M2475 770 c-4 -6 -10 -8 -14 -6 -4 3 -8 -1 -8 -9 0 -10 4 -12 12 -5
7 5 14 8 17 5 2 -3 5 2 5 10 0 18 -3 19 -12 5z"/>
<path d="M2590 770 c-9 -6 -10 -10 -3 -10 6 0 15 5 18 10 8 12 4 12 -15 0z"/>
<path d="M2628 757 c-3 -19 -2 -25 4 -19 6 6 8 18 6 28 -3 14 -5 12 -10 -9z"/>
<path d="M2856 772 c-10 -9 -7 -22 5 -22 5 0 7 5 3 11 -4 7 1 10 11 7 10 -1
20 -9 23 -16 2 -7 -2 -11 -8 -10 -19 4 -22 -15 -7 -36 11 -15 16 -16 22 -6 5
8 4 11 -2 7 -6 -4 -14 0 -17 9 -8 22 -8 26 4 19 6 -3 13 2 17 12 4 10 10 20
15 24 4 3 -8 5 -26 6 -19 1 -37 -2 -40 -5z"/>
<path d="M2941 766 c-1 -12 4 -16 13 -13 24 9 28 -6 5 -18 -19 -11 -19 -13 -5
-18 10 -4 15 -3 12 2 -3 5 1 12 10 15 13 5 14 9 4 21 -10 12 -10 15 0 15 8 0
10 3 7 6 -4 4 -13 2 -21 -5 -11 -9 -15 -9 -19 1 -3 8 -6 6 -6 -6z"/>
<path d="M3000 766 c0 -12 5 -16 16 -12 11 4 19 -4 30 -30 8 -19 19 -32 24
-29 5 3 11 -5 13 -17 5 -20 5 -20 3 2 -1 14 -7 24 -13 23 -10 -2 -28 41 -25
59 1 3 -6 5 -16 3 -9 -1 -20 3 -24 9 -5 7 -8 4 -8 -8z"/>
<path d="M4064 772 c-6 -4 -4 -13 8 -24 10 -10 18 -14 18 -9 0 6 -5 13 -11 17
-8 4 -7 9 2 15 8 5 10 9 4 9 -5 0 -15 -4 -21 -8z"/>
<path d="M4100 765 c0 -8 4 -15 10 -15 5 0 7 7 4 15 -4 8 -8 15 -10 15 -2 0
-4 -7 -4 -15z"/>
<path d="M4417 761 c-3 -15 -1 -18 11 -14 9 4 13 2 9 -4 -3 -5 0 -10 8 -10 12
0 12 4 -2 21 -10 12 -18 22 -19 24 -1 1 -4 -6 -7 -17z"/>
<path d="M4504 768 c2 -7 7 -13 12 -13 5 0 16 -4 24 -10 13 -8 13 -7 1 8 -7 9
-17 15 -21 12 -5 -3 -11 0 -13 5 -3 6 -4 5 -3 -2z"/>
<path d="M4579 778 c-5 -18 -6 -38 -1 -34 7 8 12 36 6 36 -2 0 -4 -1 -5 -2z"/>
<path d="M2523 753 c-10 -10 -13 -14 -6 -10 6 5 16 6 21 3 5 -3 9 1 9 9 0 19
-1 19 -24 -2z"/>
<path d="M2755 760 c3 -5 8 -10 11 -10 2 0 4 5 4 10 0 6 -5 10 -11 10 -5 0 -7
-4 -4 -10z"/>
<path d="M4220 755 c0 -8 2 -15 4 -15 2 0 6 7 10 15 3 8 1 15 -4 15 -6 0 -10
-7 -10 -15z"/>
<path d="M4320 756 c0 -8 4 -17 9 -20 5 -4 7 3 4 14 -6 23 -13 26 -13 6z"/>
<path d="M4479 768 c-7 -23 -4 -35 7 -35 9 0 11 4 4 12 -5 7 -7 15 -3 18 3 4
3 7 0 7 -4 0 -7 -1 -8 -2z"/>
<path d="M4816 762 c-3 -5 1 -9 9 -9 8 0 12 4 9 9 -3 4 -7 8 -9 8 -2 0 -6 -4
-9 -8z"/>
<path d="M3162 740 c-7 -11 -12 -25 -12 -32 0 -7 7 0 15 16 18 33 15 45 -3 16z"/>
<path d="M4033 750 c2 -8 10 -14 16 -12 6 1 11 -7 11 -17 0 -14 -5 -18 -19
-14 -10 3 -21 1 -24 -4 -3 -5 7 -8 21 -7 21 0 27 6 27 22 0 12 -4 22 -9 21 -5
0 -13 5 -18 13 -8 10 -9 10 -5 -2z"/>
<path d="M2210 746 c0 -2 7 -7 16 -10 8 -3 12 -2 9 4 -6 10 -25 14 -25 6z"/>
<path d="M2672 740 c3 -8 2 -22 -3 -30 -5 -11 -2 -16 11 -16 10 0 16 5 12 11
-4 5 -7 16 -8 23 -2 8 -6 17 -10 20 -4 4 -4 0 -2 -8z"/>
<path d="M2734 738 c-5 -7 -3 -8 6 -3 9 5 11 1 6 -16 -3 -13 -3 -18 0 -11 3 6
10 9 16 6 6 -4 5 2 -1 15 -13 24 -17 25 -27 9z"/>
<path d="M2775 741 c-3 -5 0 -13 6 -17 8 -4 9 -3 5 4 -5 8 1 12 14 12 13 0 19
-4 14 -12 -4 -7 -3 -8 5 -4 16 10 4 26 -19 26 -10 0 -21 -4 -25 -9z"/>
<path d="M2917 736 c-3 -8 0 -22 7 -32 10 -13 15 -14 21 -4 5 9 4 11 -3 6 -12
-7 -16 5 -13 32 2 16 -6 15 -12 -2z"/>
<path d="M3228 736 c-16 -11 -16 -15 -3 -32 14 -18 15 -18 34 5 10 13 23 21
30 17 16 -11 13 -26 -4 -20 -8 4 -15 4 -15 1 0 -3 7 -7 15 -11 20 -7 41 32 25
48 -8 8 -9 6 -4 -9 7 -17 6 -18 -8 -7 -18 15 -48 6 -48 -14 0 -8 -4 -14 -10
-14 -17 0 -11 28 8 39 9 6 13 10 7 10 -5 0 -18 -6 -27 -13z"/>
<path d="M3763 733 c9 -11 17 -22 17 -26 0 -3 -8 -4 -17 -1 -15 5 -15 4 -3 -4
8 -6 18 -8 22 -6 15 9 8 29 -14 43 -22 13 -23 13 -5 -6z"/>
<path d="M3935 740 c-10 -16 3 -27 31 -27 17 0 22 2 13 7 -6 5 -18 6 -26 3 -9
-4 -11 0 -7 11 7 18 -1 22 -11 6z"/>
<path d="M2836 725 c-3 -8 -1 -15 4 -15 6 0 10 7 10 15 0 8 -2 15 -4 15 -2 0
-6 -7 -10 -15z"/>
<path d="M3020 721 c0 -14 -5 -18 -19 -14 -10 3 -21 1 -24 -4 -3 -5 7 -8 21
-7 20 0 28 7 30 22 2 12 1 22 -2 22 -3 0 -6 -9 -6 -19z"/>
<path d="M3380 721 c16 -30 30 -35 48 -16 10 10 12 15 5 11 -6 -3 -14 -2 -18
4 -3 5 -1 10 6 10 7 0 10 3 6 6 -3 3 -11 3 -17 -1 -8 -5 -8 -11 1 -21 9 -11 9
-14 -1 -14 -6 0 -14 9 -17 20 -3 11 -9 20 -15 20 -5 0 -4 -9 2 -19z"/>
<path d="M3450 733 c5 -2 8 -9 5 -13 -3 -5 4 -14 16 -20 12 -7 19 -8 15 -2 -3
6 0 13 6 16 7 3 3 3 -10 0 -15 -4 -22 -1 -20 6 2 7 -3 14 -10 16 -7 1 -8 0 -2
-3z"/>
<path d="M3564 718 c-10 -12 -13 -18 -6 -14 6 4 12 2 12 -3 0 -6 5 -11 11 -11
8 0 9 4 0 13 -11 14 -5 27 11 27 5 0 6 -5 3 -10 -4 -6 -3 -10 2 -9 20 3 27 -2
13 -11 -9 -6 -10 -10 -3 -10 20 0 24 18 7 34 -20 21 -27 20 -50 -6z"/>
<path d="M3833 725 c4 -8 2 -17 -3 -20 -6 -4 -10 2 -10 11 0 10 -3 15 -6 11
-4 -3 -4 -13 0 -22 5 -14 8 -14 30 2 16 12 20 20 12 25 -18 12 -29 9 -23 -7z"/>
<path d="M4380 730 c0 -5 -6 -7 -14 -4 -8 3 -17 0 -22 -7 -4 -8 -3 -10 5 -5 6
4 17 3 24 -3 10 -7 13 -5 14 10 1 10 0 19 -3 19 -2 0 -4 -4 -4 -10z"/>
<path d="M2340 726 c0 -2 8 -10 18 -17 15 -13 16 -12 3 4 -13 16 -21 21 -21
13z"/>
<path d="M2513 716 c-3 -6 -3 -8 2 -4 4 4 13 3 20 -2 8 -7 12 -5 12 3 0 16
-25 18 -34 3z"/>
<path d="M2576 722 c-3 -4 4 -9 15 -9 23 -2 25 3 4 10 -8 4 -16 3 -19 -1z"/>
<path d="M3100 719 c-12 -9 -12 -10 3 -5 15 5 17 2 12 -17 -5 -20 -5 -20 6 -4
14 23 0 40 -21 26z"/>
<path d="M3342 716 c16 -12 16 -14 0 -29 -9 -9 -12 -17 -7 -17 6 0 16 10 24
21 11 18 11 23 -1 30 -21 14 -35 10 -16 -5z"/>
<path d="M3721 699 c-18 -42 -10 -45 11 -3 10 19 14 34 10 34 -4 0 -13 -14
-21 -31z"/>
<path d="M3910 725 c0 -5 5 -17 10 -25 5 -8 10 -10 10 -5 0 6 -5 17 -10 25 -5
8 -10 11 -10 5z"/>
<path d="M4005 720 c-3 -6 1 -7 9 -4 18 7 21 14 7 14 -6 0 -13 -4 -16 -10z"/>
<path d="M4115 720 c27 -12 43 -12 25 0 -8 5 -22 9 -30 9 -10 0 -8 -3 5 -9z"/>
<path d="M4273 720 c-31 -12 -29 -22 1 -10 13 5 27 6 30 3 3 -4 6 -1 6 5 0 14
-7 14 -37 2z"/>
<path d="M4586 718 c3 -4 9 -8 15 -8 5 0 9 4 9 8 0 5 -7 9 -15 9 -8 0 -12 -4
-9 -9z"/>
<path d="M4630 720 c0 -5 5 -10 11 -10 5 0 7 5 4 10 -3 6 -8 10 -11 10 -2 0
-4 -4 -4 -10z"/>
<path d="M2814 702 c3 -5 2 -12 -4 -14 -13 -4 -21 -46 -10 -53 4 -3 7 3 5 12
-1 10 4 25 12 35 11 12 11 18 2 24 -7 4 -10 3 -5 -4z"/>
<path d="M3184 694 c11 -8 25 -14 30 -13 6 0 5 3 -2 6 -6 2 -10 8 -8 12 3 4
-5 8 -17 8 -21 2 -22 1 -3 -13z"/>
<path d="M3316 693 c-6 -14 -5 -15 5 -6 7 7 10 15 7 18 -3 3 -9 -2 -12 -12z"/>
<path d="M3859 702 c-1 -4 -1 -10 0 -14 0 -5 -6 -8 -14 -8 -8 0 -15 -5 -15
-10 0 -7 7 -7 20 0 11 6 18 15 15 20 -3 5 4 8 15 7 13 -1 19 -6 15 -15 -3 -7
0 -10 6 -7 5 4 8 12 6 18 -4 12 -46 21 -48 9z"/>
<path d="M4096 701 c-3 -5 1 -14 9 -21 8 -7 13 -16 10 -20 -2 -4 5 -16 18 -26
20 -18 21 -18 7 0 -8 10 -15 25 -17 34 -1 9 -7 18 -13 20 -5 2 -8 8 -4 13 3 5
3 9 0 9 -3 0 -7 -4 -10 -9z"/>
<path d="M4196 702 c-2 -4 -1 -14 3 -20 6 -10 11 -9 21 3 11 13 10 14 -5 9
-13 -5 -16 -4 -11 4 4 7 5 12 2 12 -3 0 -7 -4 -10 -8z"/>
<path d="M2714 685 c1 -8 8 -21 16 -28 12 -10 12 -9 2 4 -6 9 -9 18 -6 21 3 3
1 9 -4 12 -6 3 -9 -1 -8 -9z"/>
<path d="M3426 684 c-11 -8 -16 -14 -10 -14 13 0 39 18 34 24 -3 2 -14 -2 -24
-10z"/>
<path d="M3502 680 c0 -14 2 -19 5 -12 2 6 2 18 0 25 -3 6 -5 1 -5 -13z"/>
<path d="M3990 690 c0 -5 9 -14 20 -20 11 -6 20 -9 20 -8 0 2 -9 11 -20 21
-11 9 -20 13 -20 7z"/>
<path d="M4147 687 c-3 -8 1 -14 8 -14 7 0 11 6 8 14 -3 7 -6 13 -8 13 -2 0
-5 -6 -8 -13z"/>
<path d="M2496 678 c3 -5 10 -6 15 -3 13 9 11 12 -6 12 -8 0 -12 -4 -9 -9z"/>
<path d="M2855 680 c-3 -6 1 -7 9 -4 18 7 21 14 7 14 -6 0 -13 -4 -16 -10z"/>
<path d="M2900 680 c-9 -6 -10 -10 -3 -10 6 0 15 5 18 10 8 12 4 12 -15 0z"/>
<path d="M2954 681 c4 -5 1 -11 -6 -13 -7 -3 -3 -7 10 -10 19 -5 20 -4 11 13
-5 10 -12 19 -15 19 -3 0 -3 -4 0 -9z"/>
<path d="M3025 680 c-3 -6 1 -7 9 -4 18 7 21 14 7 14 -6 0 -13 -4 -16 -10z"/>
<path d="M3130 680 c0 -5 5 -10 10 -10 6 0 10 5 10 10 0 6 -4 10 -10 10 -5 0
-10 -4 -10 -10z"/>
<path d="M3167 679 c7 -7 15 -10 18 -7 3 3 -2 9 -12 12 -14 6 -15 5 -6 -5z"/>
<path d="M3265 680 c3 -5 8 -10 11 -10 2 0 4 5 4 10 0 6 -5 10 -11 10 -5 0 -7
-4 -4 -10z"/>
<path d="M3370 680 c0 -5 5 -10 10 -10 6 0 10 5 10 10 0 6 -4 10 -10 10 -5 0
-10 -4 -10 -10z"/>
<path d="M3457 676 c-3 -8 -3 -17 0 -20 10 -10 33 -7 33 4 0 5 -7 7 -15 4 -11
-5 -13 -2 -9 10 3 9 4 16 1 16 -3 0 -7 -6 -10 -14z"/>
<path d="M3552 676 c7 -8 15 -12 17 -11 5 6 -10 25 -20 25 -5 0 -4 -6 3 -14z"/>
<path d="M3630 680 c0 -5 10 -14 23 -20 20 -10 20 -10 5 3 -10 8 -15 17 -11
20 3 4 1 7 -5 7 -7 0 -12 -4 -12 -10z"/>
<path d="M3735 680 c-3 -6 1 -7 9 -4 18 7 21 14 7 14 -6 0 -13 -4 -16 -10z"/>
<path d="M3785 680 c-3 -5 -2 -10 4 -10 5 0 13 5 16 10 3 6 2 10 -4 10 -5 0
-13 -4 -16 -10z"/>
<path d="M3941 673 c0 -11 3 -13 6 -5 2 6 10 9 15 6 7 -4 8 -2 4 4 -11 18 -26
14 -25 -5z"/>
<path d="M4376 673 c-6 -14 -5 -15 5 -6 7 7 10 15 7 18 -3 3 -9 -2 -12 -12z"/>
<path d="M3294 669 c1 -7 13 -14 27 -16 18 -2 20 -1 9 6 -8 5 -17 8 -21 5 -4
-2 -10 1 -12 6 -3 6 -4 5 -3 -1z"/>
<path d="M3590 670 c0 -5 7 -10 16 -10 8 0 13 -4 9 -9 -3 -5 -1 -12 4 -15 5
-4 8 1 7 10 -3 19 -36 41 -36 24z"/>
<path d="M3675 670 c3 -5 8 -10 11 -10 2 0 4 5 4 10 0 6 -5 10 -11 10 -5 0 -7
-4 -4 -10z"/>
<path d="M2999 668 c-5 -18 -6 -38 -1 -34 7 8 12 36 6 36 -2 0 -4 -1 -5 -2z"/>
<path d="M3190 650 c-6 -11 -8 -20 -6 -20 3 0 10 9 16 20 6 11 8 20 6 20 -3 0
-10 -9 -16 -20z"/>
<path d="M3530 650 c-6 -11 -8 -20 -6 -20 3 0 10 9 16 20 6 11 8 20 6 20 -3 0
-10 -9 -16 -20z"/>
<path d="M3750 660 c0 -5 5 -10 10 -10 6 0 10 5 10 10 0 6 -4 10 -10 10 -5 0
-10 -4 -10 -10z"/>
<path d="M3910 660 c0 -5 5 -10 10 -10 6 0 10 5 10 10 0 6 -4 10 -10 10 -5 0
-10 -4 -10 -10z"/>
<path d="M3979 668 c-9 -30 -6 -37 12 -28 23 13 25 22 2 13 -11 -4 -14 -3 -9
5 4 7 5 12 2 12 -3 0 -6 -1 -7 -2z"/>
<path d="M4555 659 c-3 -4 2 -6 10 -5 21 3 28 13 10 13 -9 0 -18 -4 -20 -8z"/>
<path d="M2655 649 c-4 -6 -5 -12 -2 -15 2 -3 7 2 10 11 7 17 1 20 -8 4z"/>
<path d="M2694 640 c0 -13 4 -16 10 -10 7 7 7 13 0 20 -6 6 -10 3 -10 -10z"/>
<path d="M3117 653 c-12 -12 -7 -21 16 -26 20 -5 20 -5 5 7 -10 7 -15 16 -11
19 3 4 4 7 1 7 -2 0 -8 -3 -11 -7z"/>
<path d="M3150 649 c0 -5 5 -7 10 -4 6 3 10 8 10 11 0 2 -4 4 -10 4 -5 0 -10
-5 -10 -11z"/>
<path d="M3281 643 c7 -12 15 -20 18 -17 3 2 -3 12 -13 22 -17 16 -18 16 -5
-5z"/>
<path d="M3355 650 c3 -5 8 -10 11 -10 2 0 4 5 4 10 0 6 -5 10 -11 10 -5 0 -7
-4 -4 -10z"/>
<path d="M3393 645 c0 -8 4 -15 9 -15 4 0 8 7 8 15 0 8 -4 15 -8 15 -5 0 -9
-7 -9 -15z"/>
<path d="M3430 651 c0 -5 7 -12 16 -15 14 -5 15 -4 4 9 -14 17 -20 19 -20 6z"/>
<path d="M4435 649 c-4 -6 -5 -12 -2 -15 2 -3 7 2 10 11 7 17 1 20 -8 4z"/>
<path d="M2844 643 c4 -4 16 -8 28 -10 28 -4 18 6 -12 12 -12 2 -20 1 -16 -2z"/>
<path d="M3570 640 c0 -5 5 -10 10 -10 6 0 10 5 10 10 0 6 -4 10 -10 10 -5 0
-10 -4 -10 -10z"/>
<path d="M3725 640 c3 -5 8 -10 11 -10 2 0 4 5 4 10 0 6 -5 10 -11 10 -5 0 -7
-4 -4 -10z"/>
<path d="M3780 638 c0 -4 7 -8 15 -8 8 0 15 4 15 8 0 5 -7 9 -15 9 -8 0 -15
-4 -15 -9z"/>
<path d="M4050 641 c0 -6 4 -13 10 -16 6 -3 7 1 4 9 -7 18 -14 21 -14 7z"/>
<path d="M3055 630 c-3 -6 1 -7 9 -4 18 7 21 14 7 14 -6 0 -13 -4 -16 -10z"/>
<path d="M3476 627 c3 -10 9 -15 12 -12 3 3 0 11 -7 18 -10 9 -11 8 -5 -6z"/>
<path d="M3660 636 c0 -2 7 -7 16 -10 8 -3 12 -2 9 4 -6 10 -25 14 -25 6z"/>
<path d="M3830 630 c-11 -7 -11 -10 -2 -10 8 0 10 -5 6 -12 -4 -7 -3 -9 1 -5
7 6 17 37 12 37 -1 0 -9 -5 -17 -10z"/>
<path d="M4189 623 c-13 -16 -12 -17 4 -4 16 13 21 21 13 21 -2 0 -10 -8 -17
-17z"/>
<path d="M2514 622 c4 -3 14 -7 22 -8 9 -1 13 0 10 4 -4 3 -14 7 -22 8 -9 1
-13 0 -10 -4z"/>
<path d="M3334 619 c-4 -7 -3 -9 4 -5 6 3 13 -2 15 -11 4 -16 5 -16 6 -1 1 21
-15 32 -25 17z"/>
<path d="M3539 628 c-9 -30 -6 -37 12 -28 23 13 25 22 2 13 -11 -4 -14 -3 -9
5 4 7 5 12 2 12 -3 0 -6 -1 -7 -2z"/>
<path d="M3753 610 c1 -21 10 -18 13 5 1 8 -2 15 -6 15 -5 0 -8 -9 -7 -20z"/>
<path d="M2853 607 c0 -8 6 -14 14 -14 9 0 10 4 2 14 -6 7 -12 13 -14 13 -1 0
-2 -6 -2 -13z"/>
<path d="M3440 610 c0 -5 -5 -9 -11 -7 -6 1 -13 -4 -14 -11 -2 -7 -1 -8 2 -2
3 7 13 5 27 -7 11 -9 16 -11 9 -4 -6 7 -9 20 -6 27 3 8 2 14 -1 14 -3 0 -6 -4
-6 -10z"/>
<path d="M3500 611 c0 -6 4 -13 10 -16 6 -3 7 1 4 9 -7 18 -14 21 -14 7z"/>
<path d="M3624 609 c1 -7 10 -13 19 -15 9 -1 15 2 11 7 -3 5 -9 7 -14 4 -4 -3
-11 0 -13 5 -3 6 -4 5 -3 -1z"/>
<path d="M4555 609 c-4 -6 -5 -12 -2 -15 2 -3 7 2 10 11 7 17 1 20 -8 4z"/>
<path d="M4713 605 c0 -8 4 -12 9 -9 5 3 6 10 3 15 -9 13 -12 11 -12 -6z"/>
<path d="M3070 603 c0 -6 8 -17 18 -24 16 -13 16 -13 2 6 -8 11 -16 22 -17 24
-2 2 -3 0 -3 -6z"/>
<path d="M3135 601 c-3 -5 -2 -12 3 -15 5 -3 9 1 9 9 0 17 -3 19 -12 6z"/>
<path d="M3291 594 c0 -11 3 -14 6 -6 3 7 2 16 -1 19 -3 4 -6 -2 -5 -13z"/>
<path d="M3693 595 c0 -8 4 -12 9 -9 4 3 8 9 8 15 0 5 -4 9 -8 9 -5 0 -9 -7
-9 -15z"/>
<path d="M3930 602 c0 -5 7 -9 15 -9 8 0 12 4 9 9 -3 4 -9 8 -15 8 -5 0 -9 -4
-9 -8z"/>
<path d="M4124 603 c4 -4 16 -8 28 -10 28 -4 18 6 -12 12 -12 2 -20 1 -16 -2z"/>
<path d="M4195 601 c-3 -5 -2 -12 3 -15 5 -3 9 1 9 9 0 17 -3 19 -12 6z"/>
<path d="M4430 606 c0 -2 7 -7 16 -10 8 -3 12 -2 9 4 -6 10 -25 14 -25 6z"/>
<path d="M3174 588 c-4 -7 -3 -8 5 -4 6 4 20 2 29 -6 15 -12 16 -11 3 5 -16
20 -27 22 -37 5z"/>
<path d="M3310 596 c0 -2 8 -10 18 -17 15 -13 16 -12 3 4 -13 16 -21 21 -21
13z"/>
<path d="M3360 580 c-9 -6 -10 -10 -3 -10 6 0 15 5 18 10 8 12 4 12 -15 0z"/>
<path d="M3826 581 c-4 -5 3 -7 14 -4 23 6 26 13 6 13 -8 0 -17 -4 -20 -9z"/>
<path d="M3993 573 c0 -9 4 -10 14 -2 7 6 13 12 13 14 0 1 -6 2 -13 2 -8 0
-14 -6 -14 -14z"/>
<path d="M4336 582 c-2 -4 -1 -14 4 -22 7 -11 9 -9 7 8 -1 24 -3 26 -11 14z"/>
<path d="M3113 565 c0 -8 4 -12 9 -9 5 3 6 10 3 15 -9 13 -12 11 -12 -6z"/>
<path d="M3233 565 c0 -8 3 -13 5 -10 3 3 10 0 17 -5 8 -7 12 -5 12 5 0 8 -3
13 -5 10 -3 -3 -10 0 -17 5 -8 7 -12 5 -12 -5z"/>
<path d="M3533 566 c0 -14 50 -17 63 -4 4 4 -4 5 -16 3 -13 -3 -29 0 -35 5 -8
7 -12 5 -12 -4z"/>
<path d="M3650 576 c0 -2 8 -10 18 -17 15 -13 16 -12 3 4 -13 16 -21 21 -21
13z"/>
<path d="M4033 565 c0 -8 4 -12 9 -9 5 3 6 10 3 15 -9 13 -12 11 -12 -6z"/>
<path d="M2674 562 c4 -3 14 -7 22 -8 9 -1 13 0 10 4 -4 3 -14 7 -22 8 -9 1
-13 0 -10 -4z"/>
<path d="M3293 554 c0 -9 4 -11 12 -4 7 5 14 9 16 7 2 -1 3 0 1 2 -7 11 -29 7
-29 -5z"/>
<path d="M3393 551 c0 -11 5 -18 9 -15 4 3 5 11 1 19 -7 21 -12 19 -10 -4z"/>
<path d="M4119 553 c-13 -16 -12 -17 4 -4 16 13 21 21 13 21 -2 0 -10 -8 -17
-17z"/>
<path d="M4430 561 c0 -6 4 -13 10 -16 6 -3 7 1 4 9 -7 18 -14 21 -14 7z"/>
<path d="M2895 551 c-3 -5 -2 -12 3 -15 5 -3 9 1 9 9 0 17 -3 19 -12 6z"/>
<path d="M2815 539 c-3 -4 2 -6 10 -5 21 3 28 13 10 13 -9 0 -18 -4 -20 -8z"/>
<path d="M3425 540 c-3 -6 1 -7 9 -4 18 7 21 14 7 14 -6 0 -13 -4 -16 -10z"/>
<path d="M3466 538 c3 -4 9 -8 15 -8 5 0 9 4 9 8 0 5 -7 9 -15 9 -8 0 -12 -4
-9 -9z"/>
<path d="M3680 540 c-9 -6 -10 -10 -3 -10 6 0 15 5 18 10 8 12 4 12 -15 0z"/>
<path d="M3210 519 c0 -5 5 -7 10 -4 6 3 10 8 10 11 0 2 -4 4 -10 4 -5 0 -10
-5 -10 -11z"/>
<path d="M3786 518 c3 -5 10 -6 15 -3 13 9 11 12 -6 12 -8 0 -12 -4 -9 -9z"/>
<path d="M3170 500 c0 -5 5 -10 11 -10 5 0 7 5 4 10 -3 6 -8 10 -11 10 -2 0
-4 -4 -4 -10z"/>
<path d="M3335 500 c3 -5 8 -10 11 -10 2 0 4 5 4 10 0 6 -5 10 -11 10 -5 0 -7
-4 -4 -10z"/>
<path d="M3575 500 c3 -5 8 -10 11 -10 2 0 4 5 4 10 0 6 -5 10 -11 10 -5 0 -7
-4 -4 -10z"/>
<path d="M3469 483 c-13 -16 -12 -17 4 -4 16 13 21 21 13 21 -2 0 -10 -8 -17
-17z"/>
<path d="M3250 480 c0 -5 5 -10 11 -10 5 0 7 5 4 10 -3 6 -8 10 -11 10 -2 0
-4 -4 -4 -10z"/>
<path d="M3695 480 c-3 -5 -1 -10 4 -10 6 0 11 5 11 10 0 6 -2 10 -4 10 -3 0
-8 -4 -11 -10z"/>
<path d="M3867 479 c7 -7 15 -10 18 -7 3 3 -2 9 -12 12 -14 6 -15 5 -6 -5z"/>
<path d="M4180 486 c0 -2 8 -10 18 -17 15 -13 16 -12 3 4 -13 16 -21 21 -21
13z"/>
<path d="M3426 462 c-3 -5 1 -9 9 -9 8 0 12 4 9 9 -3 4 -7 8 -9 8 -2 0 -6 -4
-9 -8z"/>
<path d="M3546 462 c-3 -5 1 -9 9 -9 8 0 12 4 9 9 -3 4 -7 8 -9 8 -2 0 -6 -4
-9 -8z"/>
<path d="M3196 442 c-3 -5 1 -9 9 -9 8 0 12 4 9 9 -3 4 -7 8 -9 8 -2 0 -6 -4
-9 -8z"/>
<path d="M3966 438 c3 -5 10 -6 15 -3 13 9 11 12 -6 12 -8 0 -12 -4 -9 -9z"/>
</g>
</svg>
